STARTFONT 2.3
FONT -FontForge-Syncopate-Book-R-Normal--14-140-72-72-P-105-ISO10646-1
SIZE 14 72 72  4
FONTBOUNDINGBOX 26 17 -3 -3
COMMENT "Generated by fontforge, http://fontforge.sourceforge.net"
COMMENT "Copyright (c) 2010 by Brian J. Bonislawsky DBA Astigmatic (AOETI). All rights reserved. Available under the Apache 2.0 licence.http://www.apache.org/licenses/LICENSE-2.0.html"
STARTPROPERTIES 40
FOUNDRY "FontForge"
FAMILY_NAME "Syncopate"
WEIGHT_NAME "Book"
SLANT "R"
SETWIDTH_NAME "Normal"
ADD_STYLE_NAME ""
PIXEL_SIZE 14
POINT_SIZE 140
RESOLUTION_X 72
RESOLUTION_Y 72
SPACING "P"
AVERAGE_WIDTH 105
CHARSET_REGISTRY "ISO10646"
CHARSET_ENCODING "1"
FONTNAME_REGISTRY ""
CHARSET_COLLECTIONS "ISO8859-2 ISO8859-9 ISO8859-4 ISO10646-1"
BITS_PER_PIXEL 4
FONT_NAME "Syncopate-Regular"
FACE_NAME "Syncopate Regular"
COPYRIGHT "Copyright (c) 2010 by Brian J. Bonislawsky DBA Astigmatic (AOETI). All rights reserved. Available under the Apache 2.0 licence.http://www.apache.org/licenses/LICENSE-2.0.html"
FONT_VERSION "001.001"
FONT_ASCENT 11
FONT_DESCENT 3
UNDERLINE_POSITION -1
UNDERLINE_THICKNESS 1
X_HEIGHT 9
CAP_HEIGHT 9
RAW_ASCENT 799
RAW_DESCENT 200
NORM_SPACE 5
RELATIVE_WEIGHT 40
RELATIVE_SETWIDTH 70
SUPERSCRIPT_X 0
SUPERSCRIPT_Y 4
SUPERSCRIPT_SIZE 2
SUBSCRIPT_X 0
SUBSCRIPT_Y 4
SUBSCRIPT_SIZE 2
AVG_LOWERCASE_WIDTH 120
AVG_UPPERCASE_WIDTH 115
ENDPROPERTIES
CHARS 370
STARTCHAR space
ENCODING 32
SWIDTH 375 0
DWIDTH 5 0
BBX 1 1 0 0
BITMAP
00
ENDCHAR
STARTCHAR exclam
ENCODING 33
SWIDTH 274 0
DWIDTH 4 0
BBX 2 10 1 0
BITMAP
97
97
96
86
75
75
64
64
00
97
ENDCHAR
STARTCHAR quotedbl
ENCODING 34
SWIDTH 290 0
DWIDTH 4 0
BBX 4 3 0 7
BITMAP
7768
6657
6547
ENDCHAR
STARTCHAR numbersign
ENCODING 35
SWIDTH 701 0
DWIDTH 10 0
BBX 10 10 0 0
BITMAP
0004600A00
0007300A00
000A102800
08FFFFFFF2
0019008200
005500A000
4FFFFFFF50
00A0037000
00A0064000
0280091000
ENDCHAR
STARTCHAR dollar
ENCODING 36
SWIDTH 767 0
DWIDTH 11 0
BBX 9 12 1 -1
BITMAP
0000A00000
07CEFD9300
8A31A25A00
D100A00000
9910A00000
07DCC30000
0003DBD500
0000A02B50
0000A00590
A621A15D40
39DFFEB400
0000A00000
ENDCHAR
STARTCHAR percent
ENCODING 37
SWIDTH 992 0
DWIDTH 14 0
BBX 13 10 0 0
BITMAP
04CEB200067000
1C315B003B0000
48000C01B10000
1C315B0A400000
04CEB267000000
000003B08EE700
00001C17911A50
0000A40A200490
00067007911A50
003B00008EE800
ENDCHAR
STARTCHAR ampersand
ENCODING 38
SWIDTH 926 0
DWIDTH 13 0
BBX 11 10 1 0
BITMAP
006CFE800000
04B301A50000
066000A30000
01C16A300000
009F60000000
1B64C2000670
A3002C400A30
D10001A83B00
8B41012BF400
06BEFEB63B60
ENDCHAR
STARTCHAR quotesingle
ENCODING 39
SWIDTH 140 0
DWIDTH 2 0
BBX 2 3 0 7
BITMAP
77
66
65
ENDCHAR
STARTCHAR parenleft
ENCODING 40
SWIDTH 420 0
DWIDTH 6 0
BBX 4 11 1 -1
BITMAP
0093
0880
2C00
8600
B200
D000
B200
8600
2C00
0880
0093
ENDCHAR
STARTCHAR parenright
ENCODING 41
SWIDTH 420 0
DWIDTH 6 0
BBX 4 11 1 -1
BITMAP
5800
0A60
01D1
0086
004A
002B
004A
0076
01D1
0A60
5800
ENDCHAR
STARTCHAR asterisk
ENCODING 42
SWIDTH 503 0
DWIDTH 7 0
BBX 6 5 1 5
BITMAP
00B000
B6A5B1
09F900
B6A5B1
00B000
ENDCHAR
STARTCHAR plus
ENCODING 43
SWIDTH 634 0
DWIDTH 9 0
BBX 7 7 1 1
BITMAP
000B0000
000B0000
000B0000
CFFFFFB0
000B0000
000B0000
000B0000
ENDCHAR
STARTCHAR comma
ENCODING 44
SWIDTH 185 0
DWIDTH 3 0
BBX 2 3 0 -2
BITMAP
3D
69
94
ENDCHAR
STARTCHAR hyphen
ENCODING 45
SWIDTH 540 0
DWIDTH 8 0
BBX 6 1 1 4
BITMAP
DFFFF7
ENDCHAR
STARTCHAR period
ENCODING 46
SWIDTH 185 0
DWIDTH 3 0
BBX 2 1 0 0
BITMAP
4D
ENDCHAR
STARTCHAR slash
ENCODING 47
SWIDTH 500 0
DWIDTH 7 0
BBX 7 10 0 0
BITMAP
00000B10
00004800
0000B100
00039000
000A2000
002A0000
00930000
02B00000
08400000
1C000000
ENDCHAR
STARTCHAR zero
ENCODING 48
SWIDTH 833 0
DWIDTH 12 0
BBX 11 10 0 0
BITMAP
0006CEEA3000
00BA4115D600
079000001D30
0D1000000590
1B00000002B0
1B00000002B0
0D1000000590
079000001D30
00BB3115D600
0006CEEB4000
ENDCHAR
STARTCHAR one
ENCODING 49
SWIDTH 339 0
DWIDTH 5 0
BBX 4 10 0 0
BITMAP
FFF1
00B1
00B1
00B1
00B1
00B1
00B1
00B1
00B1
00B1
ENDCHAR
STARTCHAR two
ENCODING 50
SWIDTH 728 0
DWIDTH 10 0
BBX 10 10 0 0
BITMAP
06BEFDB500
5941015C80
00000001E1
00000000C1
00000004A0
0000005B10
0000199000
0006B40000
04B6000000
6FFFFFFFF5
ENDCHAR
STARTCHAR three
ENCODING 51
SWIDTH 726 0
DWIDTH 10 0
BBX 10 10 0 0
BITMAP
05BEFEB600
3941014B80
00000001B0
0000024A50
000BFFB300
0000125A70
00000000C1
00000000D2
6831014B90
17CEFEB600
ENDCHAR
STARTCHAR four
ENCODING 52
SWIDTH 769 0
DWIDTH 11 0
BBX 11 10 0 0
BITMAP
000002CD0000
00002C3D0000
0002C20D0000
002C200D0000
02C2000D0000
2C20000D0000
9FFFFFFFFF50
0000000D0000
0000000D0000
0000000D0000
ENDCHAR
STARTCHAR five
ENCODING 53
SWIDTH 738 0
DWIDTH 10 0
BBX 10 10 0 0
BITMAP
0CFFFFFFB0
0C10000000
0C10000000
0C10000000
0CDEFED920
00000138D1
0000000077
0000000077
2A410138D1
05AEFEC810
ENDCHAR
STARTCHAR six
ENCODING 54
SWIDTH 772 0
DWIDTH 11 0
BBX 11 10 0 0
BITMAP
0006BEFFF400
00BB41000000
079000000000
0D2000000000
1D18CEEC7000
1ED720139B00
0E1000000B30
0A5000000B20
02D72013AA00
0018DFEC7000
ENDCHAR
STARTCHAR seven
ENCODING 55
SWIDTH 669 0
DWIDTH 9 0
BBX 9 10 0 0
BITMAP
FFFFFFFFE0
0000000860
0000002C00
000000B400
0000059000
00001D1000
0000860000
0003C00000
000B300000
0069000000
ENDCHAR
STARTCHAR eight
ENCODING 56
SWIDTH 793 0
DWIDTH 11 0
BBX 11 10 0 0
BITMAP
004AEFEB5000
04C51014B600
076000004900
01C83137B200
000AFFFB1000
04C83137D600
1C1000001C30
3B0000000950
0CA410139C10
017CEFEC7100
ENDCHAR
STARTCHAR nine
ENCODING 57
SWIDTH 776 0
DWIDTH 11 0
BBX 10 10 0 0
BITMAP
017CEFC710
0C831128C1
4A00000068
590000002C
1C820137CE
018DEEC71E
000000004B
00000000B5
0000014C90
08FFFEB500
ENDCHAR
STARTCHAR colon
ENCODING 58
SWIDTH 245 0
DWIDTH 3 0
BBX 2 7 1 0
BITMAP
D5
00
00
00
00
00
D5
ENDCHAR
STARTCHAR semicolon
ENCODING 59
SWIDTH 234 0
DWIDTH 3 0
BBX 3 9 0 -2
BITMAP
0D50
0000
0000
0000
0000
0000
0E20
2D00
4900
ENDCHAR
STARTCHAR less
ENCODING 60
SWIDTH 634 0
DWIDTH 9 0
BBX 7 7 1 1
BITMAP
00001790
0028D820
3AD61000
E9000000
3AD61000
0028D820
00001790
ENDCHAR
STARTCHAR equal
ENCODING 61
SWIDTH 634 0
DWIDTH 9 0
BBX 7 4 1 3
BITMAP
CFFFFFB0
00000000
00000000
CFFFFFB0
ENDCHAR
STARTCHAR greater
ENCODING 62
SWIDTH 634 0
DWIDTH 9 0
BBX 7 7 1 1
BITMAP
A6000000
29D71000
0017D920
00001AC0
0017D920
29D71000
A6000000
ENDCHAR
STARTCHAR question
ENCODING 63
SWIDTH 568 0
DWIDTH 8 0
BBX 7 10 0 0
BITMAP
06DFD810
28202AA0
000000E0
000003B0
00017B20
00AA5000
00C00000
00000000
00000000
00C30000
ENDCHAR
STARTCHAR at
ENCODING 64
SWIDTH 1016 0
DWIDTH 14 0
BBX 13 10 1 0
BITMAP
0005BDFEB60000
02CA52024AB100
1D500000006900
87006DECC00D00
C106B315A00B20
D00B3005700D00
B30A602B729900
5C12CFD7DE9000
08D63100000000
003ADFFED70000
ENDCHAR
STARTCHAR A
ENCODING 65
SWIDTH 812 0
DWIDTH 11 0
BBX 11 10 0 0
BITMAP
00001E700000
000087D00000
0001D0860000
0008702D0000
001E100A6000
00890003D000
01E20000B600
07FFFFFFFD00
1E3000000C60
7800000003C0
ENDCHAR
STARTCHAR B
ENCODING 66
SWIDTH 836 0
DWIDTH 12 0
BBX 10 10 1 0
BITMAP
6FFFFFFC40
67000014D1
6700000092
67000014C0
6FFFFFFD40
67000013B6
670000002C
670000001D
67000002A9
6FFFFFFD81
ENDCHAR
STARTCHAR C
ENCODING 67
SWIDTH 869 0
DWIDTH 12 0
BBX 11 10 1 0
BITMAP
0049DEED9400
08C620025A30
6A0000000000
C20000000000
D00000000000
D00000000000
D20000000000
6A0000000000
09C620025A30
0049DFFDA400
ENDCHAR
STARTCHAR D
ENCODING 68
SWIDTH 910 0
DWIDTH 13 0
BBX 11 10 1 0
BITMAP
6FFFFFDB6000
67000014BA00
670000000B50
6700000004A0
6700000002C0
6700000001C0
6700000004A0
670000000B50
67000024BA00
6FFFFFEB6000
ENDCHAR
STARTCHAR E
ENCODING 69
SWIDTH 754 0
DWIDTH 11 0
BBX 9 10 1 0
BITMAP
6FFFFFFF60
6800000000
6800000000
6800000000
6FFFFFFF10
6800000000
6800000000
6800000000
6800000000
6FFFFFFF80
ENDCHAR
STARTCHAR F
ENCODING 70
SWIDTH 687 0
DWIDTH 10 0
BBX 8 10 1 0
BITMAP
6FFFFFFF
67000000
67000000
67000000
6FFFFFFA
67000000
67000000
67000000
67000000
67000000
ENDCHAR
STARTCHAR G
ENCODING 71
SWIDTH 910 0
DWIDTH 13 0
BBX 11 10 1 0
BITMAP
0039DEFDA500
08D621014950
6B0000000000
C20000000000
D00000000000
D00001FFFF90
D20000000490
6B1000000490
09D621012890
004ADFFEC930
ENDCHAR
STARTCHAR H
ENCODING 72
SWIDTH 949 0
DWIDTH 13 0
BBX 11 10 1 0
BITMAP
6700000002B0
6700000002B0
6700000002B0
6700000002B0
6FFFFFFFFFB0
6700000002B0
6700000002B0
6700000002B0
6700000002B0
6700000002B0
ENDCHAR
STARTCHAR I
ENCODING 73
SWIDTH 287 0
DWIDTH 4 0
BBX 2 10 1 0
BITMAP
67
67
67
67
67
67
67
67
67
67
ENDCHAR
STARTCHAR J
ENCODING 74
SWIDTH 590 0
DWIDTH 8 0
BBX 7 10 0 0
BITMAP
000002B0
000002B0
000002B0
000002B0
000002B0
000002B0
000002B0
000005A0
00014D30
FFFEB400
ENDCHAR
STARTCHAR K
ENCODING 75
SWIDTH 806 0
DWIDTH 11 0
BBX 10 10 1 0
BITMAP
67000005B2
670001A700
67005B3000
671A900000
6BD4000000
68AA100000
6706C40000
67002C8000
6700008C20
67000003C6
ENDCHAR
STARTCHAR L
ENCODING 76
SWIDTH 701 0
DWIDTH 10 0
BBX 9 10 1 0
BITMAP
6700000000
6700000000
6700000000
6700000000
6700000000
6700000000
6700000000
6700000000
6700000000
6FFFFFFF40
ENDCHAR
STARTCHAR M
ENCODING 77
SWIDTH 1139 0
DWIDTH 16 0
BBX 14 10 1 0
BITMAP
6C0000000000C5
6D6000000007D5
67C10000001C85
6749000000A475
670A300004A075
6702C0000C2075
67007600670075
67000C11C00075
67000499400075
670000AA000075
ENDCHAR
STARTCHAR N
ENCODING 78
SWIDTH 936 0
DWIDTH 13 0
BBX 11 10 1 0
BITMAP
6D1000000580
6AC100000580
675B10000580
6706B0000580
67007A000580
670008800580
670000970580
6700000A6580
67000000BA80
670000001C80
ENDCHAR
STARTCHAR O
ENCODING 79
SWIDTH 983 0
DWIDTH 14 0
BBX 12 10 1 0
BITMAP
004ADEED9300
09C520126D70
6A00000001C3
D1000000005A
D0000000001C
D0000000001C
D1000000005A
7A00000001C3
0AC520026D70
004ADFFD9300
ENDCHAR
STARTCHAR P
ENCODING 80
SWIDTH 818 0
DWIDTH 11 0
BBX 10 10 1 0
BITMAP
6FFFFFEC60
67000013C5
670000004A
670000004A
67000003C5
6FFFFFEC60
6700000000
6700000000
6700000000
6700000000
ENDCHAR
STARTCHAR Q
ENCODING 81
SWIDTH 983 0
DWIDTH 14 0
BBX 13 10 1 0
BITMAP
004ADEED930000
09C520126D7000
6A00000001C300
D1000000005A00
D0000000001C00
D0000000001C00
D1000000005A00
7A00003B41C400
0AC52016EFB300
004ADFED947C80
ENDCHAR
STARTCHAR R
ENCODING 82
SWIDTH 833 0
DWIDTH 12 0
BBX 10 10 1 0
BITMAP
6FFFFFEA20
67000026D0
67000000B3
67000000A3
67000026D0
6FFFFFFA20
6700008700
6700000B40
67000002C1
670000005B
ENDCHAR
STARTCHAR S
ENCODING 83
SWIDTH 787 0
DWIDTH 11 0
BBX 9 10 1 0
BITMAP
07CEFDA400
8B41014A20
C200000000
7A20000000
04BC840000
000148B810
00000006A0
00000000D0
A631014B90
28CEFEC600
ENDCHAR
STARTCHAR T
ENCODING 84
SWIDTH 708 0
DWIDTH 10 0
BBX 10 10 0 0
BITMAP
BFFFFFFFFA
0000760000
0000760000
0000760000
0000760000
0000760000
0000760000
0000760000
0000760000
0000760000
ENDCHAR
STARTCHAR U
ENCODING 85
SWIDTH 891 0
DWIDTH 12 0
BBX 10 10 1 0
BITMAP
850000000D
850000000D
850000000D
850000000D
850000000D
850000000D
760000000D
6A0000003D
1DA41026E6
018CEFEA40
ENDCHAR
STARTCHAR V
ENCODING 86
SWIDTH 817 0
DWIDTH 11 0
BBX 11 10 0 0
BITMAP
6800000002C0
0D1000000950
077000001D00
01D100008600
00870001D100
001D00077000
0009600C1000
0002C0680000
0000A5C10000
00003E900000
ENDCHAR
STARTCHAR W
ENCODING 87
SWIDTH 1266 0
DWIDTH 18 0
BBX 18 10 0 0
BITMAP
4A000000D9000000D1
0D100004AD000005A0
086000094850000A40
02C0000D03A0001D00
00C2005800C1006800
006800A3007600C200
001D01C0002B03B000
000A4670000B285000
0004AC2000068D1000
0000DB000001E90000
ENDCHAR
STARTCHAR X
ENCODING 88
SWIDTH 821 0
DWIDTH 12 0
BBX 11 10 0 0
BITMAP
0A6000001C40
01B40000B500
001C30096000
0002C2880000
00003DA00000
00005BC10000
0004B15B0000
003C1006A000
02C200008800
1C3000000970
ENDCHAR
STARTCHAR Y
ENCODING 89
SWIDTH 763 0
DWIDTH 11 0
BBX 10 10 0 0
BITMAP
2C1000004B
05A00001C2
0096000B40
000B307700
0002C5B000
00005E1000
00001C0000
00001C0000
00001C0000
00001C0000
ENDCHAR
STARTCHAR Z
ENCODING 90
SWIDTH 728 0
DWIDTH 10 0
BBX 9 10 1 0
BITMAP
CFFFFFFF10
0000009600
0000078000
00004A0000
0003C10000
001C200000
00B3000000
0A60000000
7800000000
FFFFFFFF40
ENDCHAR
STARTCHAR bracketleft
ENCODING 91
SWIDTH 409 0
DWIDTH 6 0
BBX 4 11 1 -1
BITMAP
4FFF
4900
4900
4900
4900
4900
4900
4900
4900
4900
4FFF
ENDCHAR
STARTCHAR backslash
ENCODING 92
SWIDTH 500 0
DWIDTH 7 0
BBX 7 10 0 0
BITMAP
1B000000
08400000
02B00000
00930000
002A0000
000A2000
00039000
0000B100
00004800
00000C10
ENDCHAR
STARTCHAR bracketright
ENCODING 93
SWIDTH 409 0
DWIDTH 6 0
BBX 4 11 0 -1
BITMAP
4FFF
000D
000D
000D
000D
000D
000D
000D
000D
000D
4FFF
ENDCHAR
STARTCHAR asciicircum
ENCODING 94
SWIDTH 459 0
DWIDTH 6 0
BBX 6 4 0 6
BITMAP
008D10
02B580
0A30B2
49003B
ENDCHAR
STARTCHAR underscore
ENCODING 95
SWIDTH 500 0
DWIDTH 7 0
BBX 7 1 0 -2
BITMAP
FFFFFFF0
ENDCHAR
STARTCHAR grave
ENCODING 96
SWIDTH 527 0
DWIDTH 7 0
BBX 4 2 1 9
BITMAP
7810
04A4
ENDCHAR
STARTCHAR a
ENCODING 97
SWIDTH 888 0
DWIDTH 12 0
BBX 11 10 0 0
BITMAP
0049DEED9300
04A520026D50
0000000002C0
0000000000D0
000158ACDEE0
01AD974321D0
0C50000000D0
2C00000000D0
0C8310248DE0
019DFEDA61D0
ENDCHAR
STARTCHAR b
ENCODING 98
SWIDTH 836 0
DWIDTH 12 0
BBX 10 10 1 0
BITMAP
6FFFFFFC40
67000014D1
6700000092
67000014C0
6FFFFFFD40
67000013B6
670000002C
670000001D
67000002A9
6FFFFFFD81
ENDCHAR
STARTCHAR c
ENCODING 99
SWIDTH 869 0
DWIDTH 12 0
BBX 11 10 1 0
BITMAP
0049DEED9400
08C620025A30
6A0000000000
C20000000000
D00000000000
D00000000000
D20000000000
6A0000000000
09C620025A30
0049DFFDA400
ENDCHAR
STARTCHAR d
ENCODING 100
SWIDTH 910 0
DWIDTH 13 0
BBX 11 10 1 0
BITMAP
6FFFFFDB6000
67000014BA00
670000000B50
6700000004A0
6700000002C0
6700000001C0
6700000004A0
670000000B50
67000024BA00
6FFFFFEB6000
ENDCHAR
STARTCHAR e
ENCODING 101
SWIDTH 910 0
DWIDTH 13 0
BBX 11 10 1 0
BITMAP
004AEFEB5000
09B41014B900
690000000940
C100000002A0
FFFFFFFFFFC0
D00000000000
D30000000000
6C1000000000
09D721025B10
004ADFFD9400
ENDCHAR
STARTCHAR f
ENCODING 102
SWIDTH 817 0
DWIDTH 11 0
BBX 10 10 1 0
BITMAP
019DFFFFF9
1DA3100000
4B00000000
6700000000
6700000000
6FFFFFFFF7
6700000000
6700000000
6700000000
6700000000
ENDCHAR
STARTCHAR g
ENCODING 103
SWIDTH 910 0
DWIDTH 13 0
BBX 11 10 1 0
BITMAP
0039DEFDA500
08D621014950
6B0000000000
C20000000000
D00000000000
D00001FFFF90
D20000000490
6B1000000490
09D621012890
004ADFFEC930
ENDCHAR
STARTCHAR h
ENCODING 104
SWIDTH 949 0
DWIDTH 13 0
BBX 11 10 1 0
BITMAP
6700000002B0
6700000002B0
6700000002B0
6700000002B0
6FFFFFFFFFB0
6700000002B0
6700000002B0
6700000002B0
6700000002B0
6700000002B0
ENDCHAR
STARTCHAR i
ENCODING 105
SWIDTH 287 0
DWIDTH 4 0
BBX 2 10 1 0
BITMAP
67
67
67
67
67
67
67
67
67
67
ENDCHAR
STARTCHAR j
ENCODING 106
SWIDTH 590 0
DWIDTH 8 0
BBX 7 10 0 0
BITMAP
000002B0
000002B0
000002B0
000002B0
000002B0
000002B0
000002B0
000005A0
00014D30
FFFEB400
ENDCHAR
STARTCHAR k
ENCODING 107
SWIDTH 867 0
DWIDTH 12 0
BBX 11 10 1 0
BITMAP
670000005800
67000000C300
6700001A7000
670138C50000
6FFFFC300000
670137DA1000
67000008C100
670000008800
670000001D00
670000000B20
ENDCHAR
STARTCHAR l
ENCODING 108
SWIDTH 709 0
DWIDTH 10 0
BBX 9 10 1 0
BITMAP
6700000000
6700000000
6700000000
6700000000
6700000000
6700000000
6700000000
5800000000
2E51000000
04CEFFFFC0
ENDCHAR
STARTCHAR m
ENCODING 109
SWIDTH 1246 0
DWIDTH 17 0
BBX 15 10 1 0
BITMAP
672AEE9106CED700
6BC5129ABA312B60
6C10000E600002C0
6700000B200000D0
6700000B200000D0
6700000B200000D0
6700000B200000D0
6700000B200000D0
6700000B200000D0
6700000B200000D0
ENDCHAR
STARTCHAR n
ENCODING 110
SWIDTH 933 0
DWIDTH 13 0
BBX 11 10 1 0
BITMAP
67039DEDA200
68AC62116D10
6E5000000860
670000000580
670000000580
670000000580
670000000580
670000000580
670000000580
670000000580
ENDCHAR
STARTCHAR o
ENCODING 111
SWIDTH 983 0
DWIDTH 14 0
BBX 12 10 1 0
BITMAP
004ADEED9300
09C520126D70
6A00000001C3
D1000000005A
D0000000001C
D0000000001C
D1000000005A
7A00000001C3
0AC520026D70
004ADFFD9300
ENDCHAR
STARTCHAR p
ENCODING 112
SWIDTH 818 0
DWIDTH 11 0
BBX 10 10 1 0
BITMAP
6FFFFFEC60
67000013C5
670000004A
670000004A
67000003C5
6FFFFFEC60
6700000000
6700000000
6700000000
6700000000
ENDCHAR
STARTCHAR q
ENCODING 113
SWIDTH 983 0
DWIDTH 14 0
BBX 13 10 1 0
BITMAP
004ADEED930000
09C520126D7000
6A00000001C300
D1000000005A00
D0000000001C00
D0000000001C00
D1000000005A00
7A00000001C300
0AC520026DA200
004ADFED969C70
ENDCHAR
STARTCHAR r
ENCODING 114
SWIDTH 609 0
DWIDTH 9 0
BBX 8 10 1 0
BITMAP
6705BEF7
67AA4111
6E500000
68000000
67000000
67000000
67000000
67000000
67000000
67000000
ENDCHAR
STARTCHAR s
ENCODING 115
SWIDTH 787 0
DWIDTH 11 0
BBX 9 10 1 0
BITMAP
07CEFDA400
8B41014A20
C200000000
7A20000000
04BC840000
000148B810
00000006A0
00000000D0
A631014B90
28CEFEC600
ENDCHAR
STARTCHAR t
ENCODING 116
SWIDTH 708 0
DWIDTH 10 0
BBX 10 10 0 0
BITMAP
BFFFFFFFFA
0000760000
0000760000
0000760000
0000760000
0000760000
0000760000
0000760000
0000760000
0000760000
ENDCHAR
STARTCHAR u
ENCODING 117
SWIDTH 931 0
DWIDTH 13 0
BBX 11 10 1 0
BITMAP
760000000670
760000000670
760000000670
760000000670
760000000670
760000000670
760000000670
590000005E70
1D61026CB870
02ADED930670
ENDCHAR
STARTCHAR v
ENCODING 118
SWIDTH 817 0
DWIDTH 11 0
BBX 11 10 0 0
BITMAP
6800000002C0
0D1000000950
077000001D00
01D100008600
00870001D100
001D00077000
0009600C1000
0002C0680000
0000A5C10000
00003E900000
ENDCHAR
STARTCHAR w
ENCODING 119
SWIDTH 1266 0
DWIDTH 18 0
BBX 18 10 0 0
BITMAP
4A000000D9000000D1
0D100004AD000005A0
086000094850000A40
02C0000D03A0001D00
00C2005800C1006800
006800A3007600C200
001D01C0002B03B000
000A4670000B285000
0004AC2000068D1000
0000DB000001E90000
ENDCHAR
STARTCHAR x
ENCODING 120
SWIDTH 821 0
DWIDTH 12 0
BBX 11 10 0 0
BITMAP
0A6000001C40
01B40000B500
001C30096000
0002C2880000
00003DA00000
00005BC10000
0004B15B0000
003C1006A000
02C200008800
1C3000000970
ENDCHAR
STARTCHAR y
ENCODING 121
SWIDTH 911 0
DWIDTH 13 0
BBX 11 10 1 0
BITMAP
B20000000B30
B20000000B30
B20000000B30
A40000001D30
6A000001BE30
0C92025D6B30
018DFDA30B20
000000003D00
97310138E400
28CEFEC82000
ENDCHAR
STARTCHAR z
ENCODING 122
SWIDTH 728 0
DWIDTH 10 0
BBX 9 10 1 0
BITMAP
CFFFFFFF10
0000009600
0000078000
00004A0000
0003C10000
001C200000
00B3000000
0A60000000
7800000000
FFFFFFFF40
ENDCHAR
STARTCHAR braceleft
ENCODING 123
SWIDTH 386 0
DWIDTH 5 0
BBX 5 11 0 -1
BITMAP
006EB0
00D200
00D000
01C000
05A000
9E2000
05A000
01C000
00D000
00D200
006EB0
ENDCHAR
STARTCHAR bar
ENCODING 124
SWIDTH 259 0
DWIDTH 4 0
BBX 2 14 1 -3
BITMAP
94
94
94
94
94
94
94
94
94
94
94
94
94
94
ENDCHAR
STARTCHAR braceright
ENCODING 125
SWIDTH 386 0
DWIDTH 5 0
BBX 5 11 0 -1
BITMAP
4FB000
00A500
007600
006700
004A10
000AF0
004A10
006700
007600
00A500
4FB000
ENDCHAR
STARTCHAR asciitilde
ENCODING 126
SWIDTH 634 0
DWIDTH 9 0
BBX 7 2 1 4
BITMAP
7EC72170
7138DE50
ENDCHAR
STARTCHAR nonbreakingspace
ENCODING 160
SWIDTH 375 0
DWIDTH 5 0
BBX 1 1 0 0
BITMAP
00
ENDCHAR
STARTCHAR exclamdown
ENCODING 161
SWIDTH 274 0
DWIDTH 4 0
BBX 2 10 1 0
BITMAP
97
00
64
64
75
75
86
96
97
97
ENDCHAR
STARTCHAR cent
ENCODING 162
SWIDTH 736 0
DWIDTH 10 0
BBX 10 10 0 0
BITMAP
00000B0000
0029CFEC71
04D73B1378
1D200B0000
4B000B0000
4B000B0000
1D200B0000
04D62B1278
0029DFEC81
00000B0000
ENDCHAR
STARTCHAR sterling
ENCODING 163
SWIDTH 792 0
DWIDTH 11 0
BBX 11 10 0 0
BITMAP
00007DFFFB00
0007B3100000
000D10000000
001C00000000
002B00000000
2FFFFFFF3000
002B00000000
003A00000000
02B600000000
2FFFFFFFFF40
ENDCHAR
STARTCHAR currency
ENCODING 164
SWIDTH 560 0
DWIDTH 8 0
BBX 6 7 1 1
BITMAP
500005
9AEDB7
5A12B3
820056
5912B3
9AEDB7
500005
ENDCHAR
STARTCHAR yen
ENCODING 165
SWIDTH 811 0
DWIDTH 11 0
BBX 10 10 1 0
BITMAP
B4000001C2
1C20000A40
03B1007700
005A04A000
BFFF9EFFF1
0001D40000
BFFFFFFFF1
0000B20000
0000B20000
0000B20000
ENDCHAR
STARTCHAR brokenbar
ENCODING 166
SWIDTH 259 0
DWIDTH 4 0
BBX 2 12 1 -2
BITMAP
94
94
94
94
94
00
00
94
94
94
94
94
ENDCHAR
STARTCHAR section
ENCODING 167
SWIDTH 500 0
DWIDTH 7 0
BBX 7 10 0 0
BITMAP
03CFF800
0A500000
04C40000
099CC200
1B005D00
0D500B20
03CC9A00
0005D400
00005A00
0CFFC300
ENDCHAR
STARTCHAR dieresis
ENCODING 168
SWIDTH 527 0
DWIDTH 7 0
BBX 5 1 1 9
BITMAP
3C0790
ENDCHAR
STARTCHAR copyright
ENCODING 169
SWIDTH 770 0
DWIDTH 11 0
BBX 11 9 0 0
BITMAP
0019DEC70000
02D72029C100
0B35DFF66800
282C30000A00
465700000810
282C30000A00
0B35DFF65800
02D71029C100
0019DFD70000
ENDCHAR
STARTCHAR ordfeminine
ENCODING 170
SWIDTH 497 0
DWIDTH 7 0
BBX 7 7 0 3
BITMAP
1FFFD700
00002B20
07BDEF30
79322A30
3CFFCC30
00000000
6FFFFF30
ENDCHAR
STARTCHAR guillemotleft
ENCODING 171
SWIDTH 440 0
DWIDTH 6 0
BBX 6 5 0 2
BITMAP
01A065
1B45B0
680D10
1B45B0
01A065
ENDCHAR
STARTCHAR logicalnot
ENCODING 172
SWIDTH 634 0
DWIDTH 9 0
BBX 7 3 1 3
BITMAP
CFFFFFB0
000000B0
000000B0
ENDCHAR
STARTCHAR uni00AD
ENCODING 173
SWIDTH 540 0
DWIDTH 8 0
BBX 6 1 1 4
BITMAP
DFFFF7
ENDCHAR
STARTCHAR registered
ENCODING 174
SWIDTH 600 0
DWIDTH 8 0
BBX 8 7 0 3
BITMAP
007EEA20
08AFFBC1
19373A37
353FF509
19372837
088215C1
007EFB20
ENDCHAR
STARTCHAR macron
ENCODING 175
SWIDTH 527 0
DWIDTH 7 0
BBX 5 1 1 9
BITMAP
3FFF90
ENDCHAR
STARTCHAR degree
ENCODING 176
SWIDTH 373 0
DWIDTH 5 0
BBX 5 3 0 7
BITMAP
08EB00
1C1940
09EB10
ENDCHAR
STARTCHAR plusminus
ENCODING 177
SWIDTH 634 0
DWIDTH 9 0
BBX 7 8 1 1
BITMAP
000B0000
000B0000
000B0000
CFFFFFB0
000B0000
000B0000
00000000
CFFFFFB0
ENDCHAR
STARTCHAR twosuperior
ENCODING 178
SWIDTH 511 0
DWIDTH 7 0
BBX 7 6 0 4
BITMAP
7FFEC500
00003D30
00000A20
00039400
04760000
7FFFFF60
ENDCHAR
STARTCHAR threesuperior
ENCODING 179
SWIDTH 512 0
DWIDTH 7 0
BBX 7 6 0 4
BITMAP
6FFFD600
00014D00
00AFD300
00013B10
00003C20
8FFEC500
ENDCHAR
STARTCHAR acute
ENCODING 180
SWIDTH 527 0
DWIDTH 7 0
BBX 3 2 3 9
BITMAP
05B0
A610
ENDCHAR
STARTCHAR micro
ENCODING 181
SWIDTH 705 0
DWIDTH 10 0
BBX 9 10 0 -3
BITMAP
00C1000670
00C0000940
03A0000B20
0570000D00
0850006B00
0BC217AA00
0C5EE70C00
1B00000000
4900000000
7600000000
ENDCHAR
STARTCHAR paragraph
ENCODING 182
SWIDTH 585 0
DWIDTH 8 0
BBX 7 10 0 0
BITMAP
02BEFF80
0DFF9180
2FFF9180
0DFF9180
02BE9180
00009180
00009180
00009180
00009180
00009180
ENDCHAR
STARTCHAR periodcentered
ENCODING 183
SWIDTH 185 0
DWIDTH 3 0
BBX 2 1 0 4
BITMAP
4D
ENDCHAR
STARTCHAR cedilla
ENCODING 184
SWIDTH 527 0
DWIDTH 7 0
BBX 4 3 2 -3
BITMAP
0BC1
0094
DFC1
ENDCHAR
STARTCHAR onesuperior
ENCODING 185
SWIDTH 261 0
DWIDTH 4 0
BBX 3 6 0 4
BITMAP
DF60
0660
0660
0660
0660
0660
ENDCHAR
STARTCHAR ordmasculine
ENCODING 186
SWIDTH 520 0
DWIDTH 7 0
BBX 7 7 0 3
BITMAP
06CED800
4B201880
840000B0
4B201790
06CED810
00000000
4FFFFF80
ENDCHAR
STARTCHAR guillemotright
ENCODING 187
SWIDTH 440 0
DWIDTH 6 0
BBX 6 5 0 2
BITMAP
390930
0872C2
00D169
0872C2
390930
ENDCHAR
STARTCHAR onequarter
ENCODING 188
SWIDTH 857 0
DWIDTH 12 0
BBX 12 10 0 0
BITMAP
BF800000B300
048000086000
0480004A0000
048001B10000
04800B300000
000086008E00
0004A0095B00
001C11A30B00
00B305FFFFF5
086000000B00
ENDCHAR
STARTCHAR onehalf
ENCODING 189
SWIDTH 937 0
DWIDTH 13 0
BBX 12 10 0 0
BITMAP
BF800000B300
048000086000
0480004A0000
048001B10000
04800B300000
0000860CFFD5
0004A000003D
001C10000057
00B300005740
0860000CFFFF
ENDCHAR
STARTCHAR threequarters
ENCODING 190
SWIDTH 978 0
DWIDTH 14 0
BBX 13 10 0 0
BITMAP
3FFEA00002B000
0002B3000B2000
00CF9000950000
0001A505900000
4FFEB12B000000
000000B201BA00
000009502A3A00
00005903A11A00
0002B00AFFFFF0
000B2000001A00
ENDCHAR
STARTCHAR questiondown
ENCODING 191
SWIDTH 568 0
DWIDTH 8 0
BBX 7 10 1 0
BITMAP
0004C000
00000000
00000000
0001C000
005BA000
2B610000
C2000000
E0000000
B9202920
19DFD600
ENDCHAR
STARTCHAR Agrave
ENCODING 192
SWIDTH 812 0
DWIDTH 11 0
BBX 11 13 0 0
BITMAP
000781000000
00004A400000
000000000000
00001E700000
000087D00000
0001D0860000
0008702D0000
001E100A6000
00890003D000
01E20000B600
07FFFFFFFD00
1E3000000C60
7800000003C0
ENDCHAR
STARTCHAR Aacute
ENCODING 193
SWIDTH 812 0
DWIDTH 11 0
BBX 11 13 0 0
BITMAP
0000005B0000
00000A610000
000000000000
00001E700000
000087D00000
0001D0860000
0008702D0000
001E100A6000
00890003D000
01E20000B600
07FFFFFFFD00
1E3000000C60
7800000003C0
ENDCHAR
STARTCHAR Acircumflex
ENCODING 194
SWIDTH 812 0
DWIDTH 11 0
BBX 11 13 0 0
BITMAP
00005C810000
0008714A2000
000000000000
00001E700000
000087D00000
0001D0860000
0008702D0000
001E100A6000
00890003D000
01E20000B600
07FFFFFFFD00
1E3000000C60
7800000003C0
ENDCHAR
STARTCHAR Atilde
ENCODING 195
SWIDTH 812 0
DWIDTH 11 0
BBX 11 13 0 0
BITMAP
0004EA2A1000
000927E90000
000000000000
00001E700000
000087D00000
0001D0860000
0008702D0000
001E100A6000
00890003D000
01E20000B600
07FFFFFFFD00
1E3000000C60
7800000003C0
ENDCHAR
STARTCHAR Adieresis
ENCODING 196
SWIDTH 812 0
DWIDTH 11 0
BBX 11 12 0 0
BITMAP
0003C0790000
000000000000
00001E700000
000087D00000
0001D0860000
0008702D0000
001E100A6000
00890003D000
01E20000B600
07FFFFFFFD00
1E3000000C60
7800000003C0
ENDCHAR
STARTCHAR Aring
ENCODING 197
SWIDTH 812 0
DWIDTH 11 0
BBX 11 14 0 0
BITMAP
00009EC20000
0001C1760000
00009EC20000
000000000000
00001E700000
000087D00000
0001D0860000
0008702D0000
001E100A6000
00890003D000
01E20000B600
07FFFFFFFD00
1E3000000C60
7800000003C0
ENDCHAR
STARTCHAR AE
ENCODING 198
SWIDTH 1172 0
DWIDTH 16 0
BBX 16 10 0 0
BITMAP
000001DFFFFFFFF4
0000097850000000
00004D0850000000
0000D50850000000
0008B008FFFFFFE0
002E200850000000
00C8000850000000
06FFFFFF50000000
2E50000850000000
A8000008FFFFFFF5
ENDCHAR
STARTCHAR Ccedilla
ENCODING 199
SWIDTH 869 0
DWIDTH 12 0
BBX 11 13 1 -3
BITMAP
0049DEED9400
08C620025A30
6A0000000000
C20000000000
D00000000000
D00000000000
D20000000000
6A0000000000
09C620025A30
0049DFFDA400
00001EA00000
000001C00000
0001FF900000
ENDCHAR
STARTCHAR Egrave
ENCODING 200
SWIDTH 754 0
DWIDTH 11 0
BBX 9 13 1 0
BITMAP
00A6000000
0005A10000
0000000000
6FFFFFFF60
6800000000
6800000000
6800000000
6FFFFFFF10
6800000000
6800000000
6800000000
6800000000
6FFFFFFF80
ENDCHAR
STARTCHAR Eacute
ENCODING 201
SWIDTH 754 0
DWIDTH 11 0
BBX 9 13 1 0
BITMAP
0000188000
0003A40000
0000000000
6FFFFFFF60
6800000000
6800000000
6800000000
6FFFFFFF10
6800000000
6800000000
6800000000
6800000000
6FFFFFFF80
ENDCHAR
STARTCHAR Ecircumflex
ENCODING 202
SWIDTH 754 0
DWIDTH 11 0
BBX 9 13 1 0
BITMAP
0007D60000
01A5169000
0000000000
6FFFFFFF60
6800000000
6800000000
6800000000
6FFFFFFF10
6800000000
6800000000
6800000000
6800000000
6FFFFFFF80
ENDCHAR
STARTCHAR Edieresis
ENCODING 203
SWIDTH 754 0
DWIDTH 11 0
BBX 9 12 1 0
BITMAP
00780B4000
0000000000
6FFFFFFF60
6800000000
6800000000
6800000000
6FFFFFFF10
6800000000
6800000000
6800000000
6800000000
6FFFFFFF80
ENDCHAR
STARTCHAR Igrave
ENCODING 204
SWIDTH 287 0
DWIDTH 4 0
BBX 4 13 -1 0
BITMAP
3B30
0288
0000
0067
0067
0067
0067
0067
0067
0067
0067
0067
0067
ENDCHAR
STARTCHAR Iacute
ENCODING 205
SWIDTH 287 0
DWIDTH 4 0
BBX 4 13 1 0
BITMAP
03A3
7820
0000
6700
6700
6700
6700
6700
6700
6700
6700
6700
6700
ENDCHAR
STARTCHAR Icircumflex
ENCODING 206
SWIDTH 287 0
DWIDTH 4 0
BBX 6 13 -1 0
BITMAP
02AB20
592295
000000
006700
006700
006700
006700
006700
006700
006700
006700
006700
006700
ENDCHAR
STARTCHAR Idieresis
ENCODING 207
SWIDTH 287 0
DWIDTH 4 0
BBX 4 12 0 0
BITMAP
D22D
0000
0670
0670
0670
0670
0670
0670
0670
0670
0670
0670
ENDCHAR
STARTCHAR Eth
ENCODING 208
SWIDTH 910 0
DWIDTH 13 0
BBX 12 10 0 0
BITMAP
06FFFFEDA500
067000126CA0
0670000000C5
06700000004A
CFFFFF40001C
06700000001C
06700000004A
0670000000B5
067000025BA0
06FFFFEDA500
ENDCHAR
STARTCHAR Ntilde
ENCODING 209
SWIDTH 936 0
DWIDTH 13 0
BBX 11 13 1 0
BITMAP
0006E81A0000
000A18E70000
000000000000
6D1000000580
6AC100000580
675B10000580
6706B0000580
67007A000580
670008800580
670000970580
6700000A6580
67000000BA80
670000001C80
ENDCHAR
STARTCHAR Ograve
ENCODING 210
SWIDTH 983 0
DWIDTH 14 0
BBX 12 13 1 0
BITMAP
0005A3000000
000029600000
000000000000
004ADEED9300
09C520126D70
6A00000001C3
D1000000005A
D0000000001C
D0000000001C
D1000000005A
7A00000001C3
0AC520026D70
004ADFFD9300
ENDCHAR
STARTCHAR Oacute
ENCODING 211
SWIDTH 983 0
DWIDTH 14 0
BBX 12 13 1 0
BITMAP
0000004B2000
000008710000
000000000000
004ADEED9300
09C520126D70
6A00000001C3
D1000000005A
D0000000001C
D0000000001C
D1000000005A
7A00000001C3
0AC520026D70
004ADFFD9300
ENDCHAR
STARTCHAR Ocircumflex
ENCODING 212
SWIDTH 983 0
DWIDTH 14 0
BBX 12 13 1 0
BITMAP
00003BA20000
000682394000
000000000000
004ADEED9300
09C520126D70
6A00000001C3
D1000000005A
D0000000001C
D0000000001C
D1000000005A
7A00000001C3
0AC520026D70
004ADFFD9300
ENDCHAR
STARTCHAR Otilde
ENCODING 213
SWIDTH 983 0
DWIDTH 14 0
BBX 12 13 1 0
BITMAP
0002DB374000
000755DC0000
000000000000
004ADEED9300
09C520126D70
6A00000001C3
D1000000005A
D0000000001C
D0000000001C
D1000000005A
7A00000001C3
0AC520026D70
004ADFFD9300
ENDCHAR
STARTCHAR Odieresis
ENCODING 214
SWIDTH 983 0
DWIDTH 14 0
BBX 12 12 1 0
BITMAP
0000F04C0000
000000000000
004ADEED9300
09C520126D70
6A00000001C3
D1000000005A
D0000000001C
D0000000001C
D1000000005A
7A00000001C3
0AC520026D70
004ADFFD9300
ENDCHAR
STARTCHAR multiply
ENCODING 215
SWIDTH 634 0
DWIDTH 9 0
BBX 7 6 1 2
BITMAP
38000920
08809600
008C7000
008C6000
0880A600
38000A20
ENDCHAR
STARTCHAR Oslash
ENCODING 216
SWIDTH 983 0
DWIDTH 14 0
BBX 12 12 1 -1
BITMAP
000000000A40
004ADEEDA900
09C52013DD60
6A00000A31D3
D10000670059
D00003A0001C
D0001B10001C
D2009400005A
7A05700001C3
0ACD20026D70
00CADFFD9300
067000000000
ENDCHAR
STARTCHAR Ugrave
ENCODING 217
SWIDTH 891 0
DWIDTH 12 0
BBX 10 13 1 0
BITMAP
001B500000
00017A0000
0000000000
850000000D
850000000D
850000000D
850000000D
850000000D
850000000D
760000000D
6A0000003D
1DA41026E6
018CEFEA40
ENDCHAR
STARTCHAR Uacute
ENCODING 218
SWIDTH 891 0
DWIDTH 12 0
BBX 10 13 1 0
BITMAP
0000029600
0000593000
0000000000
850000000D
850000000D
850000000D
850000000D
850000000D
850000000D
760000000D
6A0000003D
1DA41026E6
018CEFEA40
ENDCHAR
STARTCHAR Ucircumflex
ENCODING 219
SWIDTH 891 0
DWIDTH 12 0
BBX 10 13 1 0
BITMAP
00019C4000
003A417800
0000000000
850000000D
850000000D
850000000D
850000000D
850000000D
850000000D
760000000D
6A0000003D
1DA41026E6
018CEFEA40
ENDCHAR
STARTCHAR Udieresis
ENCODING 220
SWIDTH 891 0
DWIDTH 12 0
BBX 10 12 1 0
BITMAP
000A60D200
0000000000
850000000D
850000000D
850000000D
850000000D
850000000D
850000000D
760000000D
6A0000003D
1DA41026E6
018CEFEA40
ENDCHAR
STARTCHAR Yacute
ENCODING 221
SWIDTH 763 0
DWIDTH 11 0
BBX 10 13 0 0
BITMAP
0000018800
00004A4000
0000000000
2C1000004B
05A00001C2
0096000B40
000B307700
0002C5B000
00005E1000
00001C0000
00001C0000
00001C0000
00001C0000
ENDCHAR
STARTCHAR Thorn
ENCODING 222
SWIDTH 787 0
DWIDTH 11 0
BBX 10 10 1 0
BITMAP
6700000000
6700000000
6FFFFFD910
67000138C0
67000000C1
67000000C1
67000017C0
6FFFFFD910
6700000000
6700000000
ENDCHAR
STARTCHAR germandbls
ENCODING 223
SWIDTH 863 0
DWIDTH 12 0
BBX 11 10 1 0
BITMAP
019DFED93000
2D831127E200
870000008600
A2000015C200
B209FFFE5000
B2000025C800
B20000000C20
B20000000B30
B20000139C00
B28FFFEC7100
ENDCHAR
STARTCHAR agrave
ENCODING 224
SWIDTH 888 0
DWIDTH 12 0
BBX 11 13 0 0
BITMAP
0001B4000000
000017900000
000000000000
0049DEED9300
04A520026D50
0000000002C0
0000000000D0
000158ACDEE0
01AD974321D0
0C50000000D0
2C00000000D0
0C8310248DE0
019DFEDA61D0
ENDCHAR
STARTCHAR aacute
ENCODING 225
SWIDTH 888 0
DWIDTH 12 0
BBX 11 13 0 0
BITMAP
000000295000
000006930000
000000000000
0049DEED9300
04A520026D50
0000000002C0
0000000000D0
000158ACDEE0
01AD974321D0
0C50000000D0
2C00000000D0
0C8310248DE0
019DFEDA61D0
ENDCHAR
STARTCHAR acircumflex
ENCODING 226
SWIDTH 888 0
DWIDTH 12 0
BBX 11 13 0 0
BITMAP
000019C40000
000393187000
000000000000
0049DEED9300
04A520026D50
0000000002C0
0000000000D0
000158ACDEE0
01AD974321D0
0C50000000D0
2C00000000D0
0C8310248DE0
019DFEDA61D0
ENDCHAR
STARTCHAR atilde
ENCODING 227
SWIDTH 888 0
DWIDTH 12 0
BBX 11 13 0 0
BITMAP
0000BD538000
000383BE2000
000000000000
0049DEED9300
04A520026D50
0000000002C0
0000000000D0
000158ACDEE0
01AD974321D0
0C50000000D0
2C00000000D0
0C8310248DE0
019DFEDA61D0
ENDCHAR
STARTCHAR adieresis
ENCODING 228
SWIDTH 888 0
DWIDTH 12 0
BBX 11 12 0 0
BITMAP
0000B40F1000
000000000000
0049DEED9300
04A520026D50
0000000002C0
0000000000D0
000158ACDEE0
01AD974321D0
0C50000000D0
2C00000000D0
0C8310248DE0
019DFEDA61D0
ENDCHAR
STARTCHAR aring
ENCODING 229
SWIDTH 888 0
DWIDTH 12 0
BBX 11 14 0 0
BITMAP
00003DE70000
0000951C0000
00003DE70000
000000000000
0049DEED9300
04A520026D50
0000000002C0
0000000000D0
000158ACDEE0
01AD974321D0
0C50000000D0
2C00000000D0
0C8310248DE0
019DFEDA61D0
ENDCHAR
STARTCHAR ae
ENCODING 230
SWIDTH 1551 0
DWIDTH 22 0
BBX 21 10 0 0
BITMAP
0049DEEDA3003ADFEB6000
04A520026D57C51014AA00
0000000002EA0000000760
0000000000E200000001B0
000158ACDEFFFFFFFFFFE0
01AD974321E00000000000
0C50000000B50000000000
2C000000009D2000000000
0C8310248D87E731025A20
019DFEDA610039DEFDA400
ENDCHAR
STARTCHAR ccedilla
ENCODING 231
SWIDTH 869 0
DWIDTH 12 0
BBX 11 13 1 -3
BITMAP
0049DEED9400
08C620025A30
6A0000000000
C20000000000
D00000000000
D00000000000
D20000000000
6A0000000000
09C620025A30
0049DFFDA400
00001EA00000
000001C00000
0001FF900000
ENDCHAR
STARTCHAR egrave
ENCODING 232
SWIDTH 910 0
DWIDTH 13 0
BBX 11 13 1 0
BITMAP
000A60000000
00006A100000
000000000000
004AEFEB5000
09B41014B900
690000000940
C100000002A0
FFFFFFFFFFC0
D00000000000
D30000000000
6C1000000000
09D721025B10
004ADFFD9400
ENDCHAR
STARTCHAR eacute
ENCODING 233
SWIDTH 910 0
DWIDTH 13 0
BBX 11 13 1 0
BITMAP
000001880000
00003A400000
000000000000
004AEFEB5000
09B41014B900
690000000940
C100000002A0
FFFFFFFFFFC0
D00000000000
D30000000000
6C1000000000
09D721025B10
004ADFFD9400
ENDCHAR
STARTCHAR ecircumflex
ENCODING 234
SWIDTH 910 0
DWIDTH 13 0
BBX 11 13 1 0
BITMAP
00007C600000
001A51690000
000000000000
004AEFEB5000
09B41014B900
690000000940
C100000002A0
FFFFFFFFFFC0
D00000000000
D30000000000
6C1000000000
09D721025B10
004ADFFD9400
ENDCHAR
STARTCHAR edieresis
ENCODING 235
SWIDTH 910 0
DWIDTH 13 0
BBX 11 12 1 0
BITMAP
000780B40000
000000000000
004AEFEB5000
09B41014B900
690000000940
C100000002A0
FFFFFFFFFFC0
D00000000000
D30000000000
6C1000000000
09D721025B10
004ADFFD9400
ENDCHAR
STARTCHAR igrave
ENCODING 236
SWIDTH 287 0
DWIDTH 4 0
BBX 4 13 -1 0
BITMAP
3B30
0288
0000
0067
0067
0067
0067
0067
0067
0067
0067
0067
0067
ENDCHAR
STARTCHAR iacute
ENCODING 237
SWIDTH 287 0
DWIDTH 4 0
BBX 4 13 1 0
BITMAP
03A4
7820
0000
6700
6700
6700
6700
6700
6700
6700
6700
6700
6700
ENDCHAR
STARTCHAR icircumflex
ENCODING 238
SWIDTH 287 0
DWIDTH 4 0
BBX 6 13 -1 0
BITMAP
02AB30
592295
000000
006700
006700
006700
006700
006700
006700
006700
006700
006700
006700
ENDCHAR
STARTCHAR idieresis
ENCODING 239
SWIDTH 287 0
DWIDTH 4 0
BBX 4 12 0 0
BITMAP
D22E
0000
0670
0670
0670
0670
0670
0670
0670
0670
0670
0670
ENDCHAR
STARTCHAR eth
ENCODING 240
SWIDTH 910 0
DWIDTH 13 0
BBX 12 10 0 0
BITMAP
06FFFFEDA500
067000126CA0
0670000000C5
06700000004A
CFFFFF40001C
06700000001C
06700000004A
0670000000B5
067000025BA0
06FFFFEDA500
ENDCHAR
STARTCHAR ntilde
ENCODING 241
SWIDTH 933 0
DWIDTH 13 0
BBX 11 13 1 0
BITMAP
0007E71A0000
000B29E50000
000000000000
67039DEDA200
68AC62116D10
6E5000000860
670000000580
670000000580
670000000580
670000000580
670000000580
670000000580
670000000580
ENDCHAR
STARTCHAR ograve
ENCODING 242
SWIDTH 983 0
DWIDTH 14 0
BBX 12 13 1 0
BITMAP
0005A3000000
000029600000
000000000000
004ADEED9300
09C520126D70
6A00000001C3
D1000000005A
D0000000001C
D0000000001C
D1000000005A
7A00000001C3
0AC520026D70
004ADFFD9300
ENDCHAR
STARTCHAR oacute
ENCODING 243
SWIDTH 983 0
DWIDTH 14 0
BBX 12 13 1 0
BITMAP
0000004B2000
000008710000
000000000000
004ADEED9300
09C520126D70
6A00000001C3
D1000000005A
D0000000001C
D0000000001C
D1000000005A
7A00000001C3
0AC520026D70
004ADFFD9300
ENDCHAR
STARTCHAR ocircumflex
ENCODING 244
SWIDTH 983 0
DWIDTH 14 0
BBX 12 13 1 0
BITMAP
00003BA20000
000682394000
000000000000
004ADEED9300
09C520126D70
6A00000001C3
D1000000005A
D0000000001C
D0000000001C
D1000000005A
7A00000001C3
0AC520026D70
004ADFFD9300
ENDCHAR
STARTCHAR otilde
ENCODING 245
SWIDTH 983 0
DWIDTH 14 0
BBX 12 13 1 0
BITMAP
0002DB374000
000755DC0000
000000000000
004ADEED9300
09C520126D70
6A00000001C3
D1000000005A
D0000000001C
D0000000001C
D1000000005A
7A00000001C3
0AC520026D70
004ADFFD9300
ENDCHAR
STARTCHAR odieresis
ENCODING 246
SWIDTH 983 0
DWIDTH 14 0
BBX 12 12 1 0
BITMAP
0000F04C0000
000000000000
004ADEED9300
09C520126D70
6A00000001C3
D1000000005A
D0000000001C
D0000000001C
D1000000005A
7A00000001C3
0AC520026D70
004ADFFD9300
ENDCHAR
STARTCHAR divide
ENCODING 247
SWIDTH 634 0
DWIDTH 9 0
BBX 7 5 1 2
BITMAP
000D0000
00000000
CFFFFFB0
00000000
000D0000
ENDCHAR
STARTCHAR oslash
ENCODING 248
SWIDTH 983 0
DWIDTH 14 0
BBX 12 12 1 -1
BITMAP
000000000A40
004ADEEDA900
09C52013DD60
6A00000A31D3
D10000670059
D00003A0001C
D0001B10001C
D2009400005A
7A05700001C3
0ACD20026D70
00CADFFD9300
067000000000
ENDCHAR
STARTCHAR ugrave
ENCODING 249
SWIDTH 931 0
DWIDTH 13 0
BBX 11 13 1 0
BITMAP
000971000000
00005A200000
000000000000
760000000670
760000000670
760000000670
760000000670
760000000670
760000000670
760000000670
590000005E70
1D61026CB870
02ADED930670
ENDCHAR
STARTCHAR uacute
ENCODING 250
SWIDTH 931 0
DWIDTH 13 0
BBX 11 13 1 0
BITMAP
000001790000
00002A500000
000000000000
760000000670
760000000670
760000000670
760000000670
760000000670
760000000670
760000000670
590000005E70
1D61026CB870
02ADED930670
ENDCHAR
STARTCHAR ucircumflex
ENCODING 251
SWIDTH 931 0
DWIDTH 13 0
BBX 11 13 1 0
BITMAP
00006D600000
000A516A0000
000000000000
760000000670
760000000670
760000000670
760000000670
760000000670
760000000670
760000000670
590000005E70
1D61026CB870
02ADED930670
ENDCHAR
STARTCHAR udieresis
ENCODING 252
SWIDTH 931 0
DWIDTH 13 0
BBX 11 12 1 0
BITMAP
000690A60000
000000000000
760000000670
760000000670
760000000670
760000000670
760000000670
760000000670
760000000670
590000005E70
1D61026CB870
02ADED930670
ENDCHAR
STARTCHAR yacute
ENCODING 253
SWIDTH 911 0
DWIDTH 13 0
BBX 11 13 1 0
BITMAP
000002960000
000059300000
000000000000
B20000000B30
B20000000B30
B20000000B30
A40000001D30
6A000001BE30
0C92025D6B30
018DFDA30B20
000000003D00
97310138E400
28CEFEC82000
ENDCHAR
STARTCHAR thorn
ENCODING 254
SWIDTH 787 0
DWIDTH 11 0
BBX 10 10 1 0
BITMAP
6700000000
6700000000
6FFFFFD910
67000138C0
67000000C1
67000000C1
67000017C0
6FFFFFD910
6700000000
6700000000
ENDCHAR
STARTCHAR ydieresis
ENCODING 255
SWIDTH 911 0
DWIDTH 13 0
BBX 11 12 1 0
BITMAP
000A50E10000
000000000000
B20000000B30
B20000000B30
B20000000B30
A40000001D30
6A000001BE30
0C92025D6B30
018DFDA30B20
000000003D00
97310138E400
28CEFEC82000
ENDCHAR
STARTCHAR Amacron
ENCODING 256
SWIDTH 812 0
DWIDTH 11 0
BBX 11 12 0 0
BITMAP
0003FFF90000
000000000000
00001E700000
000087D00000
0001D0860000
0008702D0000
001E100A6000
00890003D000
01E20000B600
07FFFFFFFD00
1E3000000C60
7800000003C0
ENDCHAR
STARTCHAR amacron
ENCODING 257
SWIDTH 888 0
DWIDTH 12 0
BBX 11 12 0 0
BITMAP
0000BFFF1000
000000000000
0049DEED9300
04A520026D50
0000000002C0
0000000000D0
000158ACDEE0
01AD974321D0
0C50000000D0
2C00000000D0
0C8310248DE0
019DFEDA61D0
ENDCHAR
STARTCHAR Abreve
ENCODING 258
SWIDTH 812 0
DWIDTH 11 0
BBX 11 13 0 0
BITMAP
0008713C0000
0001AED30000
000000000000
00001E700000
000087D00000
0001D0860000
0008702D0000
001E100A6000
00890003D000
01E20000B600
07FFFFFFFD00
1E3000000C60
7800000003C0
ENDCHAR
STARTCHAR abreve
ENCODING 259
SWIDTH 888 0
DWIDTH 12 0
BBX 11 13 0 0
BITMAP
0001C2195000
00005DE90000
000000000000
0049DEED9300
04A520026D50
0000000002C0
0000000000D0
000158ACDEE0
01AD974321D0
0C50000000D0
2C00000000D0
0C8310248DE0
019DFEDA61D0
ENDCHAR
STARTCHAR Aogonek
ENCODING 260
SWIDTH 812 0
DWIDTH 11 0
BBX 12 12 0 -2
BITMAP
00001E700000
000087D00000
0001D0860000
0008702D0000
001E100A6000
00890003D000
01E20000B600
07FFFFFFFD00
1E3000000C60
7800000002C0
000000000830
000000000BFF
ENDCHAR
STARTCHAR aogonek
ENCODING 261
SWIDTH 888 0
DWIDTH 12 0
BBX 12 12 0 -2
BITMAP
0049DEED9300
04A520026D50
0000000002C0
0000000000D0
000158ACDEE0
01AD974321D0
0C50000000D0
2C00000000D0
0C8310147CE0
019DFEDA61D0
000000000930
000000000CFE
ENDCHAR
STARTCHAR Cacute
ENCODING 262
SWIDTH 869 0
DWIDTH 12 0
BBX 11 13 1 0
BITMAP
0000004B1000
000009710000
000000000000
0049DEED9400
08C620025A30
6A0000000000
C20000000000
D00000000000
D00000000000
D20000000000
6A0000000000
09C620025A30
0049DFFDA400
ENDCHAR
STARTCHAR cacute
ENCODING 263
SWIDTH 869 0
DWIDTH 12 0
BBX 11 13 1 0
BITMAP
0000004B1000
000009710000
000000000000
0049DEED9400
08C620025A30
6A0000000000
C20000000000
D00000000000
D00000000000
D20000000000
6A0000000000
09C620025A30
0049DFFDA400
ENDCHAR
STARTCHAR Ccircumflex
ENCODING 264
SWIDTH 869 0
DWIDTH 12 0
BBX 11 13 1 0
BITMAP
00004C910000
000781393000
000000000000
0049DEED9400
08C620025A30
6A0000000000
C20000000000
D00000000000
D00000000000
D20000000000
6A0000000000
09C620025A30
0049DFFDA400
ENDCHAR
STARTCHAR ccircumflex
ENCODING 265
SWIDTH 869 0
DWIDTH 12 0
BBX 11 13 1 0
BITMAP
00004C910000
000781393000
000000000000
0049DEED9400
08C620025A30
6A0000000000
C20000000000
D00000000000
D00000000000
D20000000000
6A0000000000
09C620025A30
0049DFFDA400
ENDCHAR
STARTCHAR Cdotaccent
ENCODING 266
SWIDTH 869 0
DWIDTH 12 0
BBX 11 12 1 0
BITMAP
00000B500000
000000000000
0049DEED9400
08C620025A30
6A0000000000
C20000000000
D00000000000
D00000000000
D20000000000
6A0000000000
09C620025A30
0049DFFDA400
ENDCHAR
STARTCHAR cdotaccent
ENCODING 267
SWIDTH 869 0
DWIDTH 12 0
BBX 11 12 1 0
BITMAP
00000A500000
000000000000
0049DEED9400
08C620025A30
6A0000000000
C20000000000
D00000000000
D00000000000
D20000000000
6A0000000000
09C620025A30
0049DFFDA400
ENDCHAR
STARTCHAR Ccaron
ENCODING 268
SWIDTH 869 0
DWIDTH 12 0
BBX 11 13 1 0
BITMAP
000781393000
00004C910000
000000000000
0049DEED9400
08C620025A30
6A0000000000
C20000000000
D00000000000
D00000000000
D20000000000
6A0000000000
09C620025A30
0049DFFDA400
ENDCHAR
STARTCHAR ccaron
ENCODING 269
SWIDTH 869 0
DWIDTH 12 0
BBX 11 13 1 0
BITMAP
000781393000
00004C920000
000000000000
0049DEED9400
08C620025A30
6A0000000000
C20000000000
D00000000000
D00000000000
D20000000000
6A0000000000
09C620025A30
0049DFFDA400
ENDCHAR
STARTCHAR Dcaron
ENCODING 270
SWIDTH 910 0
DWIDTH 13 0
BBX 11 13 1 0
BITMAP
01A416900000
0018C5000000
000000000000
6FFFFFDB6000
67000014BA00
670000000B50
6700000004A0
6700000002C0
6700000001C0
6700000004A0
670000000B50
67000024BA00
6FFFFFEB6000
ENDCHAR
STARTCHAR dcaron
ENCODING 271
SWIDTH 910 0
DWIDTH 13 0
BBX 11 13 1 0
BITMAP
01A516900000
0018C6000000
000000000000
6FFFFFDB6000
67000014BA00
670000000B50
6700000004A0
6700000002C0
6700000001C0
6700000004A0
670000000B50
67000024BA00
6FFFFFEB6000
ENDCHAR
STARTCHAR Dcroat
ENCODING 272
SWIDTH 910 0
DWIDTH 13 0
BBX 12 10 0 0
BITMAP
06FFFFEDA500
067000126CA0
0670000000C5
06700000004A
CFFFFF40001C
06700000001C
06700000004A
0670000000B5
067000025BA0
06FFFFEDA500
ENDCHAR
STARTCHAR dcroat
ENCODING 273
SWIDTH 910 0
DWIDTH 13 0
BBX 12 10 0 0
BITMAP
06FFFFEDA500
067000126CA0
0670000000C5
06700000004A
CFFFFF40001C
06700000001C
06700000004A
0670000000B5
067000025BA0
06FFFFEDA500
ENDCHAR
STARTCHAR Emacron
ENCODING 274
SWIDTH 754 0
DWIDTH 11 0
BBX 9 12 1 0
BITMAP
007FFF4000
0000000000
6FFFFFFF60
6800000000
6800000000
6800000000
6FFFFFFF10
6800000000
6800000000
6800000000
6800000000
6FFFFFFF80
ENDCHAR
STARTCHAR emacron
ENCODING 275
SWIDTH 910 0
DWIDTH 13 0
BBX 11 12 1 0
BITMAP
0007FFF40000
000000000000
004AEFEB5000
09B41014B900
690000000940
C100000002A0
FFFFFFFFFFC0
D00000000000
D30000000000
6C1000000000
09D721025B10
004ADFFD9400
ENDCHAR
STARTCHAR Ebreve
ENCODING 276
SWIDTH 754 0
DWIDTH 11 0
BBX 9 13 1 0
BITMAP
00B4169000
003CEB1000
0000000000
6FFFFFFF60
6800000000
6800000000
6800000000
6FFFFFFF10
6800000000
6800000000
6800000000
6800000000
6FFFFFFF80
ENDCHAR
STARTCHAR ebreve
ENCODING 277
SWIDTH 910 0
DWIDTH 13 0
BBX 11 13 1 0
BITMAP
000C41690000
0003CEB10000
000000000000
004AEFEB5000
09B41014B900
690000000940
C100000002A0
FFFFFFFFFFC0
D00000000000
D30000000000
6C1000000000
09D721025B10
004ADFFD9400
ENDCHAR
STARTCHAR Edotaccent
ENCODING 278
SWIDTH 754 0
DWIDTH 11 0
BBX 9 12 1 0
BITMAP
0002E00000
0000000000
6FFFFFFF60
6800000000
6800000000
6800000000
6FFFFFFF10
6800000000
6800000000
6800000000
6800000000
6FFFFFFF80
ENDCHAR
STARTCHAR edotaccent
ENCODING 279
SWIDTH 910 0
DWIDTH 13 0
BBX 11 12 1 0
BITMAP
00002E000000
000000000000
004AEFEB5000
09B41014B900
690000000940
C100000002A0
FFFFFFFFFFC0
D00000000000
D30000000000
6C1000000000
09D721025B10
004ADFFD9400
ENDCHAR
STARTCHAR Eogonek
ENCODING 280
SWIDTH 754 0
DWIDTH 11 0
BBX 9 12 1 -2
BITMAP
6FFFFFFF60
6800000000
6800000000
6800000000
6FFFFFFF10
6800000000
6800000000
6800000000
6800000000
6FFFFFFF80
0000038200
000004EF80
ENDCHAR
STARTCHAR eogonek
ENCODING 281
SWIDTH 910 0
DWIDTH 13 0
BBX 11 12 1 -2
BITMAP
004AEFEB5000
09B41014B900
690000000940
C100000002A0
FFFFFFFFFFC0
D00000000000
D30000000000
6C1000000000
09D721025B10
004ADFFDD400
000000039000
00000002DFA0
ENDCHAR
STARTCHAR Ecaron
ENCODING 282
SWIDTH 754 0
DWIDTH 11 0
BBX 9 13 1 0
BITMAP
01A5169000
0007C60000
0000000000
6FFFFFFF60
6800000000
6800000000
6800000000
6FFFFFFF10
6800000000
6800000000
6800000000
6800000000
6FFFFFFF80
ENDCHAR
STARTCHAR ecaron
ENCODING 283
SWIDTH 910 0
DWIDTH 13 0
BBX 11 13 1 0
BITMAP
001A51690000
00017C600000
000000000000
004AEFEB5000
09B41014B900
690000000940
C100000002A0
FFFFFFFFFFC0
D00000000000
D30000000000
6C1000000000
09D721025B10
004ADFFD9400
ENDCHAR
STARTCHAR Gcircumflex
ENCODING 284
SWIDTH 910 0
DWIDTH 13 0
BBX 11 13 1 0
BITMAP
00003BA20000
000682394000
000000000000
0039DEFDA500
08D621014950
6B0000000000
C20000000000
D00000000000
D00001FFFF90
D20000000490
6B1000000490
09D621012890
004ADFFEC930
ENDCHAR
STARTCHAR gcircumflex
ENCODING 285
SWIDTH 910 0
DWIDTH 13 0
BBX 11 13 1 0
BITMAP
00003BA20000
000682394000
000000000000
0039DEFDA500
08D621014950
6B0000000000
C20000000000
D00000000000
D00001FFFF90
D20000000490
6B1000000490
09D621012890
004ADFFEC930
ENDCHAR
STARTCHAR Gbreve
ENCODING 286
SWIDTH 910 0
DWIDTH 13 0
BBX 11 13 1 0
BITMAP
0004A12C2000
00008EE60000
000000000000
0039DEFDA500
08D621014950
6B0000000000
C20000000000
D00000000000
D00001FFFF90
D20000000490
6B1000000490
09D621012890
004ADFFEC930
ENDCHAR
STARTCHAR gbreve
ENCODING 287
SWIDTH 910 0
DWIDTH 13 0
BBX 11 13 1 0
BITMAP
0004A12C2000
00008EE60000
000000000000
0039DEFDA500
08D621014950
6B0000000000
C20000000000
D00000000000
D00001FFFF90
D20000000490
6B1000000490
09D621012890
004ADFFEC930
ENDCHAR
STARTCHAR Gdotaccent
ENCODING 288
SWIDTH 910 0
DWIDTH 13 0
BBX 11 12 1 0
BITMAP
000009700000
000000000000
0039DEFDA500
08D621014950
6B0000000000
C20000000000
D00000000000
D00001FFFF90
D20000000490
6B1000000490
09D621012890
004ADFFEC930
ENDCHAR
STARTCHAR gdotaccent
ENCODING 289
SWIDTH 910 0
DWIDTH 13 0
BBX 11 12 1 0
BITMAP
000009700000
000000000000
0039DEFDA500
08D621014950
6B0000000000
C20000000000
D00000000000
D00001FFFF90
D20000000490
6B1000000490
09D621012890
004ADFFEC930
ENDCHAR
STARTCHAR Gcommaaccent
ENCODING 290
SWIDTH 910 0
DWIDTH 13 0
BBX 11 13 1 -3
BITMAP
0039DEFDA500
08D621014950
6B0000000000
C20000000000
D00000000000
D00001FFFF90
D20000000490
6B1000000490
09D621012890
004ADFFEC930
000000000000
000006800000
000008400000
ENDCHAR
STARTCHAR gcommaaccent
ENCODING 291
SWIDTH 910 0
DWIDTH 13 0
BBX 11 13 1 -3
BITMAP
0039DEFDA500
08D621014950
6B0000000000
C20000000000
D00000000000
D00001FFFF90
D20000000490
6B1000000490
09D621012890
004ADFFEC930
000000000000
000006800000
000008400000
ENDCHAR
STARTCHAR Hcircumflex
ENCODING 292
SWIDTH 949 0
DWIDTH 13 0
BBX 11 13 1 0
BITMAP
00005C810000
0009714A2000
000000000000
6700000002B0
6700000002B0
6700000002B0
6700000002B0
6FFFFFFFFFB0
6700000002B0
6700000002B0
6700000002B0
6700000002B0
6700000002B0
ENDCHAR
STARTCHAR hcircumflex
ENCODING 293
SWIDTH 949 0
DWIDTH 13 0
BBX 11 13 1 0
BITMAP
00005C810000
0009714A2000
000000000000
6700000002B0
6700000002B0
6700000002B0
6700000002B0
6FFFFFFFFFB0
6700000002B0
6700000002B0
6700000002B0
6700000002B0
6700000002B0
ENDCHAR
STARTCHAR Hbar
ENCODING 294
SWIDTH 949 0
DWIDTH 13 0
BBX 13 10 0 0
BITMAP
06700000002B00
06700000002B00
9FFFFFFFFFFFE0
06700000002B00
06FFFFFFFFFB00
06700000002B00
06700000002B00
06700000002B00
06700000002B00
06700000002B00
ENDCHAR
STARTCHAR hbar
ENCODING 295
SWIDTH 949 0
DWIDTH 13 0
BBX 13 10 0 0
BITMAP
06700000002B00
06700000002B00
9FFFFFFFFFFFE0
06700000002B00
06FFFFFFFFFB00
06700000002B00
06700000002B00
06700000002B00
06700000002B00
06700000002B00
ENDCHAR
STARTCHAR Itilde
ENCODING 296
SWIDTH 287 0
DWIDTH 4 0
BBX 6 13 -1 0
BITMAP
1CC456
564CD1
000000
006700
006700
006700
006700
006700
006700
006700
006700
006700
006700
ENDCHAR
STARTCHAR itilde
ENCODING 297
SWIDTH 287 0
DWIDTH 4 0
BBX 6 13 -1 0
BITMAP
1CC456
564CD1
000000
006700
006700
006700
006700
006700
006700
006700
006700
006700
006700
ENDCHAR
STARTCHAR Imacron
ENCODING 298
SWIDTH 287 0
DWIDTH 4 0
BBX 4 12 0 0
BITMAP
DFFD
0000
0670
0670
0670
0670
0670
0670
0670
0670
0670
0670
ENDCHAR
STARTCHAR imacron
ENCODING 299
SWIDTH 287 0
DWIDTH 4 0
BBX 4 12 0 0
BITMAP
DFFE
0000
0670
0670
0670
0670
0670
0670
0670
0670
0670
0670
ENDCHAR
STARTCHAR Ibreve
ENCODING 300
SWIDTH 287 0
DWIDTH 4 0
BBX 6 13 -1 0
BITMAP
3B11B3
07EE70
000000
006700
006700
006700
006700
006700
006700
006700
006700
006700
006700
ENDCHAR
STARTCHAR ibreve
ENCODING 301
SWIDTH 287 0
DWIDTH 4 0
BBX 6 13 -1 0
BITMAP
3B21B3
07EE70
000000
006700
006700
006700
006700
006700
006700
006700
006700
006700
006700
ENDCHAR
STARTCHAR Iogonek
ENCODING 302
SWIDTH 287 0
DWIDTH 4 0
BBX 4 12 0 -2
BITMAP
0670
0670
0670
0670
0670
0670
0670
0670
0670
0670
5600
7EF5
ENDCHAR
STARTCHAR iogonek
ENCODING 303
SWIDTH 287 0
DWIDTH 4 0
BBX 4 12 0 -2
BITMAP
0670
0670
0670
0670
0670
0670
0670
0670
0670
0670
5600
7EF5
ENDCHAR
STARTCHAR Idotaccent
ENCODING 304
SWIDTH 287 0
DWIDTH 4 0
BBX 2 12 1 0
BITMAP
88
00
67
67
67
67
67
67
67
67
67
67
ENDCHAR
STARTCHAR dotlessi
ENCODING 305
SWIDTH 287 0
DWIDTH 4 0
BBX 2 10 1 0
BITMAP
67
67
67
67
67
67
67
67
67
67
ENDCHAR
STARTCHAR IJ
ENCODING 306
SWIDTH 877 0
DWIDTH 12 0
BBX 10 10 1 0
BITMAP
670000002B
670000002B
670000002B
670000002B
670000002B
670000002B
670000002B
670000005A
67000014D3
670FFFEB40
ENDCHAR
STARTCHAR ij
ENCODING 307
SWIDTH 877 0
DWIDTH 12 0
BBX 10 10 1 0
BITMAP
670000002B
670000002B
670000002B
670000002B
670000002B
670000002B
670000002B
670000005A
67000014D3
670FFFEB40
ENDCHAR
STARTCHAR Jcircumflex
ENCODING 308
SWIDTH 590 0
DWIDTH 8 0
BBX 9 13 0 0
BITMAP
000018C500
0002A41780
0000000000
000002B000
000002B000
000002B000
000002B000
000002B000
000002B000
000002B000
000005A000
00014D3000
FFFEB40000
ENDCHAR
STARTCHAR jcircumflex
ENCODING 309
SWIDTH 590 0
DWIDTH 8 0
BBX 9 13 0 0
BITMAP
000018C500
0002A41780
0000000000
000002B000
000002B000
000002B000
000002B000
000002B000
000002B000
000002B000
000005A000
00014D3000
FFFEB40000
ENDCHAR
STARTCHAR Kcommaaccent
ENCODING 310
SWIDTH 806 0
DWIDTH 11 0
BBX 10 13 1 -3
BITMAP
67000005B2
670001A700
67005B3000
671A900000
6BD4000000
68AA100000
6706C40000
67002C8000
6700008C20
67000003C6
0000000000
0000C20000
0000B00000
ENDCHAR
STARTCHAR kcommaaccent
ENCODING 311
SWIDTH 867 0
DWIDTH 12 0
BBX 11 13 1 -3
BITMAP
670000005800
67000000C300
6700001A7000
670138C50000
6FFFFC300000
670137DA1000
67000008C100
670000008800
670000001D00
670000000B20
000000000000
000068000000
000084000000
ENDCHAR
STARTCHAR kgreenlandic
ENCODING 312
SWIDTH 867 0
DWIDTH 12 0
BBX 11 10 1 0
BITMAP
670000005800
67000000C300
6700001A7000
670138C50000
6FFFFC300000
670137DA1000
67000008C100
670000008800
670000001D00
670000000B20
ENDCHAR
STARTCHAR Lacute
ENCODING 313
SWIDTH 701 0
DWIDTH 10 0
BBX 9 13 1 0
BITMAP
03A4000000
7820000000
0000000000
6700000000
6700000000
6700000000
6700000000
6700000000
6700000000
6700000000
6700000000
6700000000
6FFFFFFF40
ENDCHAR
STARTCHAR lacute
ENCODING 314
SWIDTH 709 0
DWIDTH 10 0
BBX 9 13 1 0
BITMAP
03A4000000
7820000000
0000000000
6700000000
6700000000
6700000000
6700000000
6700000000
6700000000
6700000000
5800000000
2E51000000
04CEFFFFC0
ENDCHAR
STARTCHAR Lcommaaccent
ENCODING 315
SWIDTH 701 0
DWIDTH 10 0
BBX 9 13 1 -3
BITMAP
6700000000
6700000000
6700000000
6700000000
6700000000
6700000000
6700000000
6700000000
6700000000
6FFFFFFF40
0000000000
0000D00000
0001A00000
ENDCHAR
STARTCHAR lcommaaccent
ENCODING 316
SWIDTH 709 0
DWIDTH 10 0
BBX 9 13 1 -3
BITMAP
6700000000
6700000000
6700000000
6700000000
6700000000
6700000000
6700000000
5800000000
2E51000000
04CEFFFFC0
0000000000
0000A40000
0000B00000
ENDCHAR
STARTCHAR Lcaron
ENCODING 317
SWIDTH 701 0
DWIDTH 10 0
BBX 9 10 1 0
BITMAP
6700094000
67000B0000
6700000000
6700000000
6700000000
6700000000
6700000000
6700000000
6700000000
6FFFFFFF40
ENDCHAR
STARTCHAR lcaron
ENCODING 318
SWIDTH 709 0
DWIDTH 10 0
BBX 9 10 1 0
BITMAP
6700094000
67000B0000
6700000000
6700000000
6700000000
6700000000
6700000000
5800000000
2E51000000
04CEFFFFC0
ENDCHAR
STARTCHAR Ldot
ENCODING 319
SWIDTH 701 0
DWIDTH 10 0
BBX 9 10 1 0
BITMAP
6700000000
6700000000
6700000000
6700000000
6700000000
67000B7000
6700000000
6700000000
6700000000
6FFFFFFF40
ENDCHAR
STARTCHAR ldotaccent
ENCODING 320
SWIDTH 709 0
DWIDTH 10 0
BBX 9 10 1 0
BITMAP
6700000000
6700000000
6700000000
6700000000
6700000000
670008A000
6700000000
5800000000
2E51000000
04CEFFFFC0
ENDCHAR
STARTCHAR Lslash
ENCODING 321
SWIDTH 701 0
DWIDTH 10 0
BBX 10 10 0 0
BITMAP
0670000000
0670000000
0670000000
0674B10000
09D8100000
AB70000000
0670000000
0670000000
0670000000
06FFFFFFF4
ENDCHAR
STARTCHAR lslash
ENCODING 322
SWIDTH 709 0
DWIDTH 10 0
BBX 10 10 0 0
BITMAP
0670000000
0670000000
0670000000
0674B10000
09D8100000
AB70000000
0670000000
0590000000
01E5100000
004CEFFFFC
ENDCHAR
STARTCHAR Nacute
ENCODING 323
SWIDTH 936 0
DWIDTH 13 0
BBX 11 13 1 0
BITMAP
0000017A0000
00002A500000
000000000000
6D1000000580
6AC100000580
675B10000580
6706B0000580
67007A000580
670008800580
670000970580
6700000A6580
67000000BA80
670000001C80
ENDCHAR
STARTCHAR nacute
ENCODING 324
SWIDTH 933 0
DWIDTH 13 0
BBX 11 13 1 0
BITMAP
000001880000
00003A400000
000000000000
67039DEDA200
68AC62116D10
6E5000000860
670000000580
670000000580
670000000580
670000000580
670000000580
670000000580
670000000580
ENDCHAR
STARTCHAR Ncommaaccent
ENCODING 325
SWIDTH 936 0
DWIDTH 13 0
BBX 11 13 1 -3
BITMAP
6D1000000580
6AC100000580
675B10000580
6706B0000580
67007A000580
670008800580
670000970580
6700000A6580
67000000BA80
670000001C80
000000000000
00000D100000
00000B000000
ENDCHAR
STARTCHAR ncommaaccent
ENCODING 326
SWIDTH 933 0
DWIDTH 13 0
BBX 11 13 1 -3
BITMAP
67039DEDA200
68AC62116D10
6E5000000860
670000000580
670000000580
670000000580
670000000580
670000000580
670000000580
670000000580
000000000000
00000D100000
00001B000000
ENDCHAR
STARTCHAR Ncaron
ENCODING 327
SWIDTH 936 0
DWIDTH 13 0
BBX 11 13 1 0
BITMAP
000A605A1000
00006D700000
000000000000
6D1000000580
6AC100000580
675B10000580
6706B0000580
67007A000580
670008800580
670000970580
6700000A6580
67000000BA80
670000001C80
ENDCHAR
STARTCHAR ncaron
ENCODING 328
SWIDTH 933 0
DWIDTH 13 0
BBX 11 13 1 0
BITMAP
001A51690000
00017C600000
000000000000
67039DEDA200
68AC62116D10
6E5000000860
670000000580
670000000580
670000000580
670000000580
670000000580
670000000580
670000000580
ENDCHAR
STARTCHAR napostrophe
ENCODING 329
SWIDTH 1025 0
DWIDTH 14 0
BBX 13 10 0 0
BITMAP
A42B017CEEC500
B02C8D83114D40
002F81000004A0
002B00000001C0
002B00000000C0
002B00000000C0
002B00000000C0
002B00000000C0
002B00000000C0
002B00000000C0
ENDCHAR
STARTCHAR Eng
ENCODING 330
SWIDTH 936 0
DWIDTH 13 0
BBX 11 10 1 0
BITMAP
6E3000000580
68B600000580
670990000580
67006B100580
670004C30580
6700002C6580
67000001AC80
670000000A60
670000004D20
6700AFFEB400
ENDCHAR
STARTCHAR eng
ENCODING 331
SWIDTH 933 0
DWIDTH 13 0
BBX 11 10 1 0
BITMAP
67039DEDA200
68AC62116D10
6E5000000860
670000000580
670000000580
670000000580
670000000580
670000000760
670000014D20
67008FFEC400
ENDCHAR
STARTCHAR Omacron
ENCODING 332
SWIDTH 983 0
DWIDTH 14 0
BBX 12 12 1 0
BITMAP
0000FFFC0000
000000000000
004ADEED9300
09C520126D70
6A00000001C3
D1000000005A
D0000000001C
D0000000001C
D1000000005A
7A00000001C3
0AC520026D70
004ADFFD9300
ENDCHAR
STARTCHAR omacron
ENCODING 333
SWIDTH 983 0
DWIDTH 14 0
BBX 12 12 1 0
BITMAP
0000FFFC0000
000000000000
004ADEED9300
09C520126D70
6A00000001C3
D1000000005A
D0000000001C
D0000000001C
D1000000005A
7A00000001C3
0AC520026D70
004ADFFD9300
ENDCHAR
STARTCHAR Obreve
ENCODING 334
SWIDTH 983 0
DWIDTH 14 0
BBX 12 13 1 0
BITMAP
0004A12C2000
00008ED60000
000000000000
004ADEED9300
09C520126D70
6A00000001C3
D1000000005A
D0000000001C
D0000000001C
D1000000005A
7A00000001C3
0AC520026D70
004ADFFD9300
ENDCHAR
STARTCHAR obreve
ENCODING 335
SWIDTH 983 0
DWIDTH 14 0
BBX 12 13 1 0
BITMAP
0004A12C2000
00008ED60000
000000000000
004ADEED9300
09C520126D70
6A00000001C3
D1000000005A
D0000000001C
D0000000001C
D1000000005A
7A00000001C3
0AC520026D70
004ADFFD9300
ENDCHAR
STARTCHAR Ohungarumlaut
ENCODING 336
SWIDTH 983 0
DWIDTH 14 0
BBX 12 13 1 0
BITMAP
00001A258000
0000A4580000
000000000000
004ADEED9300
09C520126D70
6A00000001C3
D1000000005A
D0000000001C
D0000000001C
D1000000005A
7A00000001C3
0AC520026D70
004ADFFD9300
ENDCHAR
STARTCHAR ohungarumlaut
ENCODING 337
SWIDTH 983 0
DWIDTH 14 0
BBX 12 13 1 0
BITMAP
00001A258000
0000A4580000
000000000000
004ADEED9300
09C520126D70
6A00000001C3
D1000000005A
D0000000001C
D0000000001C
D1000000005A
7A00000001C3
0AC520026D70
004ADFFD9300
ENDCHAR
STARTCHAR OE
ENCODING 338
SWIDTH 1338 0
DWIDTH 19 0
BBX 17 10 1 0
BITMAP
004ADFFFFFFFFFFF90
09C520016A00000000
6A0000004A00000000
C20000004A00000000
D00000004FFFFFFF40
D00000004A00000000
D10000004A00000000
7A0000004A00000000
0AC520016A00000000
005ADFFFFFFFFFFFA0
ENDCHAR
STARTCHAR oe
ENCODING 339
SWIDTH 1688 0
DWIDTH 24 0
BBX 22 10 1 0
BITMAP
004ADEED930004ADFEB500
09C520126D607B51014A90
6A00000001C89000000085
D1000000005F100000002A
D0000000001FFFFFFFFFFC
D0000000001E0000000000
D1000000005F4000000000
7A00000001C8C100000000
0AC520026D608D731025A1
004ADFED9300039DEFDA40
ENDCHAR
STARTCHAR Racute
ENCODING 340
SWIDTH 833 0
DWIDTH 12 0
BBX 10 13 1 0
BITMAP
0000187000
0004A40000
0000000000
6FFFFFEA20
67000026D0
67000000B3
67000000A3
67000026D0
6FFFFFFA20
6700008700
6700000B40
67000002C1
670000005B
ENDCHAR
STARTCHAR racute
ENCODING 341
SWIDTH 609 0
DWIDTH 9 0
BBX 8 13 1 0
BITMAP
00006B00
001A6100
00000000
6705BEF7
67AA4111
6E500000
68000000
67000000
67000000
67000000
67000000
67000000
67000000
ENDCHAR
STARTCHAR Rcommaaccent
ENCODING 342
SWIDTH 833 0
DWIDTH 12 0
BBX 10 13 1 -3
BITMAP
6FFFFFEA20
67000026D0
67000000B3
67000000A3
67000026D0
6FFFFFFA20
6700008700
6700000B40
67000002C1
670000005B
0000000000
0000940000
0000B10000
ENDCHAR
STARTCHAR rcommaaccent
ENCODING 343
SWIDTH 609 0
DWIDTH 9 0
BBX 8 13 1 -3
BITMAP
6705BEF7
67AA4111
6E500000
68000000
67000000
67000000
67000000
67000000
67000000
67000000
00000000
68000000
84000000
ENDCHAR
STARTCHAR Rcaron
ENCODING 344
SWIDTH 833 0
DWIDTH 12 0
BBX 10 13 1 0
BITMAP
02A4178000
0018C50000
0000000000
6FFFFFEA20
67000026D0
67000000B3
67000000A3
67000026D0
6FFFFFFA20
6700008700
6700000B40
67000002C1
670000005B
ENDCHAR
STARTCHAR rcaron
ENCODING 345
SWIDTH 609 0
DWIDTH 9 0
BBX 8 13 1 0
BITMAP
08714A20
005C8100
00000000
6705BEF7
67AA4111
6E500000
68000000
67000000
67000000
67000000
67000000
67000000
67000000
ENDCHAR
STARTCHAR Sacute
ENCODING 346
SWIDTH 787 0
DWIDTH 11 0
BBX 9 13 1 0
BITMAP
0000188000
0003A40000
0000000000
07CEFDA400
8B41014A20
C200000000
7A20000000
04BC840000
000148B810
00000006A0
00000000D0
A631014B90
28CEFEC600
ENDCHAR
STARTCHAR sacute
ENCODING 347
SWIDTH 787 0
DWIDTH 11 0
BBX 9 13 1 0
BITMAP
0000188000
0003A40000
0000000000
07CEFDA400
8B41014A20
C200000000
7A20000000
04BC840000
000148B810
00000006A0
00000000D0
A631014B90
28CEFEC600
ENDCHAR
STARTCHAR Scircumflex
ENCODING 348
SWIDTH 787 0
DWIDTH 11 0
BBX 9 13 1 0
BITMAP
0007D60000
01A5169000
0000000000
07CEFDA400
8B41014A20
C200000000
7A20000000
04BC840000
000148B810
00000006A0
00000000D0
A631014B90
28CEFEC600
ENDCHAR
STARTCHAR scircumflex
ENCODING 349
SWIDTH 787 0
DWIDTH 11 0
BBX 9 13 1 0
BITMAP
0007D60000
01A5169000
0000000000
07CEFDA400
8B41014A20
C200000000
7A20000000
04BC840000
000148B810
00000006A0
00000000D0
A631014B90
28CEFEC600
ENDCHAR
STARTCHAR Scedilla
ENCODING 350
SWIDTH 787 0
DWIDTH 11 0
BBX 9 13 1 -3
BITMAP
07CEFDA400
8B41014A20
C200000000
7A20000000
05BC840000
000148C810
00000006A0
00000000D0
A631014B90
28CEFEC700
0001EA0000
00001C0000
001FF90000
ENDCHAR
STARTCHAR scedilla
ENCODING 351
SWIDTH 787 0
DWIDTH 11 0
BBX 9 13 1 -3
BITMAP
07CEFDA400
8B41014A20
C200000000
7A20000000
05BC840000
000148C810
00000006A0
00000000D0
A631014B90
28CEFEC700
0001EA0000
00001C0000
001FF90000
ENDCHAR
STARTCHAR Scaron
ENCODING 352
SWIDTH 787 0
DWIDTH 11 0
BBX 9 13 1 0
BITMAP
01A5169000
0007C60000
0000000000
07CEFDA400
8B41014A20
C200000000
7A20000000
04BC840000
000148B810
00000006A0
00000000D0
A631014B90
28CEFEC600
ENDCHAR
STARTCHAR scaron
ENCODING 353
SWIDTH 787 0
DWIDTH 11 0
BBX 9 13 1 0
BITMAP
01A5169000
0007C60000
0000000000
07CEFDA400
8B41014A20
C200000000
7A20000000
04BC840000
000148B810
00000006A0
00000000D0
A631014B90
28CEFEC600
ENDCHAR
STARTCHAR Tcommaaccent
ENCODING 354
SWIDTH 708 0
DWIDTH 10 0
BBX 10 13 0 -3
BITMAP
BFFFFFFFFA
0000760000
0000760000
0000760000
0000760000
0000760000
0000760000
0000760000
0000760000
0000760000
0000000000
0000760000
0000920000
ENDCHAR
STARTCHAR tcommaaccent
ENCODING 355
SWIDTH 708 0
DWIDTH 10 0
BBX 10 13 0 -3
BITMAP
BFFFFFFFFA
0000760000
0000760000
0000760000
0000760000
0000760000
0000760000
0000760000
0000760000
0000760000
0000000000
0000760000
0000920000
ENDCHAR
STARTCHAR Tcaron
ENCODING 356
SWIDTH 708 0
DWIDTH 10 0
BBX 10 13 0 0
BITMAP
0068229500
0003BA2000
0000000000
BFFFFFFFFA
0000760000
0000760000
0000760000
0000760000
0000760000
0000760000
0000760000
0000760000
0000760000
ENDCHAR
STARTCHAR tcaron
ENCODING 357
SWIDTH 708 0
DWIDTH 10 0
BBX 10 13 0 0
BITMAP
0068229500
0003BA2000
0000000000
BFFFFFFFFA
0000760000
0000760000
0000760000
0000760000
0000760000
0000760000
0000760000
0000760000
0000760000
ENDCHAR
STARTCHAR Tbar
ENCODING 358
SWIDTH 708 0
DWIDTH 10 0
BBX 10 10 0 0
BITMAP
BFFFFFFFFA
0000760000
0000760000
0000760000
0BFFFFFFA0
0000760000
0000760000
0000760000
0000760000
0000760000
ENDCHAR
STARTCHAR tbar
ENCODING 359
SWIDTH 708 0
DWIDTH 10 0
BBX 10 10 0 0
BITMAP
BFFFFFFFFA
0000760000
0000760000
0000760000
0BFFFFFFA0
0000760000
0000760000
0000760000
0000760000
0000760000
ENDCHAR
STARTCHAR Utilde
ENCODING 360
SWIDTH 891 0
DWIDTH 12 0
BBX 10 13 1 0
BITMAP
000AD62900
001A2AE300
0000000000
850000000D
850000000D
850000000D
850000000D
850000000D
850000000D
760000000D
6A0000003D
1DA41026E6
018CEFEA40
ENDCHAR
STARTCHAR utilde
ENCODING 361
SWIDTH 931 0
DWIDTH 13 0
BBX 11 13 1 0
BITMAP
0006E81A0000
000B18E70000
000000000000
760000000670
760000000670
760000000670
760000000670
760000000670
760000000670
760000000670
590000005E70
1D61026CB870
02ADED930670
ENDCHAR
STARTCHAR Umacron
ENCODING 362
SWIDTH 891 0
DWIDTH 12 0
BBX 10 12 1 0
BITMAP
000AFFF200
0000000000
850000000D
850000000D
850000000D
850000000D
850000000D
850000000D
760000000D
6A0000003D
1DA41026E6
018CEFEA40
ENDCHAR
STARTCHAR umacron
ENCODING 363
SWIDTH 931 0
DWIDTH 13 0
BBX 11 12 1 0
BITMAP
0006FFF60000
000000000000
760000000670
760000000670
760000000670
760000000670
760000000670
760000000670
760000000670
590000005E70
1D61026CB870
02ADED930670
ENDCHAR
STARTCHAR Ubreve
ENCODING 364
SWIDTH 891 0
DWIDTH 12 0
BBX 10 13 1 0
BITMAP
000C318600
0004DE9000
0000000000
850000000D
850000000D
850000000D
850000000D
850000000D
850000000D
760000000D
6A0000003D
1DA41026E6
018CEFEA40
ENDCHAR
STARTCHAR ubreve
ENCODING 365
SWIDTH 931 0
DWIDTH 13 0
BBX 11 13 1 0
BITMAP
000A515A0000
0002CEB20000
000000000000
760000000670
760000000670
760000000670
760000000670
760000000670
760000000670
760000000670
590000005E70
1D61026CB870
02ADED930670
ENDCHAR
STARTCHAR Uring
ENCODING 366
SWIDTH 891 0
DWIDTH 12 0
BBX 10 14 1 0
BITMAP
0003DE8000
000761D000
0003DE8000
0000000000
850000000D
850000000D
850000000D
850000000D
850000000D
850000000D
760000000D
6A0000003D
1DA41026E6
018CEFEA40
ENDCHAR
STARTCHAR uring
ENCODING 367
SWIDTH 931 0
DWIDTH 13 0
BBX 11 14 1 0
BITMAP
0001BEB00000
000491A30000
0001BFB00000
000000000000
760000000670
760000000670
760000000670
760000000670
760000000670
760000000670
760000000670
590000005E70
1D61026CB870
02ADED930670
ENDCHAR
STARTCHAR Uhungarumlaut
ENCODING 368
SWIDTH 891 0
DWIDTH 12 0
BBX 10 13 1 0
BITMAP
0000672B00
000671A200
0000000000
850000000D
850000000D
850000000D
850000000D
850000000D
850000000D
760000000D
6A0000003D
1DA41026E6
018CEFEA40
ENDCHAR
STARTCHAR uhungarumlaut
ENCODING 369
SWIDTH 931 0
DWIDTH 13 0
BBX 11 13 1 0
BITMAP
0000491A2000
000391940000
000000000000
760000000670
760000000670
760000000670
760000000670
760000000670
760000000670
760000000670
590000005E70
1D61026CB870
02ADED930670
ENDCHAR
STARTCHAR Uogonek
ENCODING 370
SWIDTH 891 0
DWIDTH 12 0
BBX 10 12 1 -2
BITMAP
850000000D
850000000D
850000000D
850000000D
850000000D
850000000D
760000000D
6A0000003D
1DA41026E6
018DFFEB40
0000A20000
0000CFE000
ENDCHAR
STARTCHAR uogonek
ENCODING 371
SWIDTH 931 0
DWIDTH 13 0
BBX 12 12 1 -2
BITMAP
760000000670
760000000670
760000000670
760000000670
760000000670
760000000670
760000000670
590000005E70
1D61026CB870
02ADED930670
000000004700
000000006EF6
ENDCHAR
STARTCHAR Wcircumflex
ENCODING 372
SWIDTH 1266 0
DWIDTH 18 0
BBX 18 13 0 0
BITMAP
00000003B920000000
000000781394000000
000000000000000000
4A000000D9000000D1
0D100004AD000005A0
086000094850000A40
02C0000D03A0001D00
00C2005800C1006800
006800A3007600C200
001D01C0002B03B000
000A4670000B285000
0004AC2000068D1000
0000DB000001E90000
ENDCHAR
STARTCHAR wcircumflex
ENCODING 373
SWIDTH 1266 0
DWIDTH 18 0
BBX 18 13 0 0
BITMAP
00000003B920000000
000000781394000000
000000000000000000
4A000000D9000000D1
0D100004AD000005A0
086000094850000A40
02C0000D03A0001D00
00C2005800C1006800
006800A3007600C200
001D01C0002B03B000
000A4670000B285000
0004AC2000068D1000
0000DB000001E90000
ENDCHAR
STARTCHAR Ycircumflex
ENCODING 374
SWIDTH 763 0
DWIDTH 11 0
BBX 10 13 0 0
BITMAP
00018C5000
002A517900
0000000000
2C1000004B
05A00001C2
0096000B40
000B307700
0002C5B000
00005E1000
00001C0000
00001C0000
00001C0000
00001C0000
ENDCHAR
STARTCHAR ycircumflex
ENCODING 375
SWIDTH 911 0
DWIDTH 13 0
BBX 11 13 1 0
BITMAP
00019C400000
003941770000
000000000000
B20000000B30
B20000000B30
B20000000B30
A40000001D30
6A000001BE30
0C92025D6B30
018DFDA30B20
000000003D00
97310138E400
28CEFEC82000
ENDCHAR
STARTCHAR Ydieresis
ENCODING 376
SWIDTH 763 0
DWIDTH 11 0
BBX 10 12 0 0
BITMAP
000870C400
0000000000
2C1000004B
05A00001C2
0096000B40
000B307700
0002C5B000
00005E1000
00001C0000
00001C0000
00001C0000
00001C0000
ENDCHAR
STARTCHAR Zacute
ENCODING 377
SWIDTH 728 0
DWIDTH 10 0
BBX 9 13 1 0
BITMAP
0000296000
0005930000
0000000000
CFFFFFFF10
0000009600
0000078000
00004A0000
0003C10000
001C200000
00B3000000
0A60000000
7800000000
FFFFFFFF40
ENDCHAR
STARTCHAR zacute
ENCODING 378
SWIDTH 728 0
DWIDTH 10 0
BBX 9 13 1 0
BITMAP
0000296000
0005930000
0000000000
CFFFFFFF10
0000009600
0000078000
00004A0000
0003C10000
001C200000
00B3000000
0A60000000
7800000000
FFFFFFFF40
ENDCHAR
STARTCHAR Zdotaccent
ENCODING 379
SWIDTH 728 0
DWIDTH 10 0
BBX 9 12 1 0
BITMAP
0005B00000
0000000000
CFFFFFFF10
0000009600
0000078000
00004A0000
0003C10000
001C200000
00B3000000
0A60000000
7800000000
FFFFFFFF40
ENDCHAR
STARTCHAR zdotaccent
ENCODING 380
SWIDTH 728 0
DWIDTH 10 0
BBX 9 12 1 0
BITMAP
0005B00000
0000000000
CFFFFFFF10
0000009600
0000078000
00004A0000
0003C10000
001C200000
00B3000000
0A60000000
7800000000
FFFFFFFF40
ENDCHAR
STARTCHAR Zcaron
ENCODING 381
SWIDTH 728 0
DWIDTH 10 0
BBX 9 13 1 0
BITMAP
0393177000
0019C40000
0000000000
CFFFFFFF10
0000009600
0000078000
00004A0000
0003C10000
001C200000
00B3000000
0A60000000
7800000000
FFFFFFFF40
ENDCHAR
STARTCHAR zcaron
ENCODING 382
SWIDTH 728 0
DWIDTH 10 0
BBX 9 13 1 0
BITMAP
0393177000
0019C40000
0000000000
CFFFFFFF10
0000009600
0000078000
00004A0000
0003C10000
001C200000
00B3000000
0A60000000
7800000000
FFFFFFFF40
ENDCHAR
STARTCHAR florin
ENCODING 402
SWIDTH 835 0
DWIDTH 12 0
BBX 12 10 0 0
BITMAP
00000009EFF4
0000007A2000
000000C20000
0004FFFFF100
000005800000
00000A400000
00000D000000
00005A000000
0003D3000000
9FFD50000000
ENDCHAR
STARTCHAR AEacute
ENCODING 508
SWIDTH 1172 0
DWIDTH 16 0
BBX 16 13 0 0
BITMAP
0000000000188000
0000000004A40000
0000000000000000
000001DFFFFFFFF4
0000097850000000
00004D0850000000
0000D50850000000
0008B008FFFFFFE0
002E200850000000
00C8000850000000
06FFFFFF50000000
2E50000850000000
A8000008FFFFFFF5
ENDCHAR
STARTCHAR aeacute
ENCODING 509
SWIDTH 1551 0
DWIDTH 22 0
BBX 21 13 0 0
BITMAP
000000000003A400000000
0000000000782000000000
0000000000000000000000
0049DEEDA3003ADFEB6000
04A520026D57C51014AA00
0000000002EA0000000760
0000000000E200000001B0
000158ACDEFFFFFFFFFFE0
01AD974321E00000000000
0C50000000B50000000000
2C000000009D2000000000
0C8310248D87E731025A20
019DFEDA610039DEFDA400
ENDCHAR
STARTCHAR Oslashacute
ENCODING 510
SWIDTH 983 0
DWIDTH 14 0
BBX 12 14 1 -1
BITMAP
0000004B2000
000008810000
000000000A40
004ADEEDA900
09C52013DD60
6A00000A31D3
D10000670059
D00003A0001C
D0001B10001C
D2009400005A
7A05700001C3
0ACD20026D70
00CADFFD9300
067000000000
ENDCHAR
STARTCHAR oslashacute
ENCODING 511
SWIDTH 983 0
DWIDTH 14 0
BBX 12 14 1 -1
BITMAP
0000004B2000
000008810000
000000000A40
004ADEEDA900
09C52013DD60
6A00000A31D3
D10000670059
D00003A0001C
D0001B10001C
D2009400005A
7A05700001C3
0ACD20026D70
00CADFFD9300
067000000000
ENDCHAR
STARTCHAR dotlessj
ENCODING 567
SWIDTH 590 0
DWIDTH 8 0
BBX 7 10 0 0
BITMAP
000002B0
000002B0
000002B0
000002B0
000002B0
000002B0
000002B0
000005A0
00014D30
FFFEB400
ENDCHAR
STARTCHAR circumflex
ENCODING 710
SWIDTH 527 0
DWIDTH 7 0
BBX 6 2 1 9
BITMAP
05C810
8714A2
ENDCHAR
STARTCHAR caron
ENCODING 711
SWIDTH 527 0
DWIDTH 7 0
BBX 6 2 1 9
BITMAP
8714A2
05C810
ENDCHAR
STARTCHAR breve
ENCODING 728
SWIDTH 527 0
DWIDTH 7 0
BBX 5 2 1 9
BITMAP
8713C0
1AED30
ENDCHAR
STARTCHAR dotaccent
ENCODING 729
SWIDTH 527 0
DWIDTH 7 0
BBX 2 1 3 9
BITMAP
C3
ENDCHAR
STARTCHAR ring
ENCODING 730
SWIDTH 527 0
DWIDTH 7 0
BBX 5 3 1 9
BITMAP
09EC20
1C1760
09EC20
ENDCHAR
STARTCHAR ogonek
ENCODING 731
SWIDTH 527 0
DWIDTH 7 0
BBX 4 2 2 -2
BITMAP
6400
9FF2
ENDCHAR
STARTCHAR tilde
ENCODING 732
SWIDTH 527 0
DWIDTH 7 0
BBX 6 2 1 9
BITMAP
4EA2A1
A27E90
ENDCHAR
STARTCHAR hungarumlaut
ENCODING 733
SWIDTH 527 0
DWIDTH 7 0
BBX 6 2 1 9
BITMAP
02B185
1A2760
ENDCHAR
STARTCHAR commaaccent
ENCODING 806
SWIDTH 527 0
DWIDTH 7 0
BBX 2 2 3 -3
BITMAP
B2
B0
ENDCHAR
STARTCHAR mu
ENCODING 956
SWIDTH 705 0
DWIDTH 10 0
BBX 9 10 0 -3
BITMAP
00C1000670
00C0000940
03A0000B20
0570000D00
0850006B00
0BC217AA00
0C5EE70C00
1B00000000
4900000000
7600000000
ENDCHAR
STARTCHAR Wgrave
ENCODING 7808
SWIDTH 1266 0
DWIDTH 18 0
BBX 18 13 0 0
BITMAP
0000005A2000000000
000000039600000000
000000000000000000
4A000000D9000000D1
0D100004AD000005A0
086000094850000A40
02C0000D03A0001D00
00C2005800C1006800
006800A3007600C200
001D01C0002B03B000
000A4670000B285000
0004AC2000068D1000
0000DB000001E90000
ENDCHAR
STARTCHAR wgrave
ENCODING 7809
SWIDTH 1266 0
DWIDTH 18 0
BBX 18 13 0 0
BITMAP
0000005A2000000000
000000039600000000
000000000000000000
4A000000D9000000D1
0D100004AD000005A0
086000094850000A40
02C0000D03A0001D00
00C2005800C1006800
006800A3007600C200
001D01C0002B03B000
000A4670000B285000
0004AC2000068D1000
0000DB000001E90000
ENDCHAR
STARTCHAR Wacute
ENCODING 7810
SWIDTH 1266 0
DWIDTH 18 0
BBX 18 13 0 0
BITMAP
0000000004B1000000
000000009710000000
000000000000000000
4A000000D9000000D1
0D100004AD000005A0
086000094850000A40
02C0000D03A0001D00
00C2005800C1006800
006800A3007600C200
001D01C0002B03B000
000A4670000B285000
0004AC2000068D1000
0000DB000001E90000
ENDCHAR
STARTCHAR wacute
ENCODING 7811
SWIDTH 1266 0
DWIDTH 18 0
BBX 18 13 0 0
BITMAP
0000000004B1000000
000000009710000000
000000000000000000
4A000000D9000000D1
0D100004AD000005A0
086000094850000A40
02C0000D03A0001D00
00C2005800C1006800
006800A3007600C200
001D01C0002B03B000
000A4670000B285000
0004AC2000068D1000
0000DB000001E90000
ENDCHAR
STARTCHAR Wdieresis
ENCODING 7812
SWIDTH 1266 0
DWIDTH 18 0
BBX 18 12 0 0
BITMAP
0000000F04B0000000
000000000000000000
4A000000D9000000D1
0D100004AD000005A0
086000094850000A40
02C0000D03A0001D00
00C2005800C1006800
006800A3007600C200
001D01C0002B03B000
000A4670000B285000
0004AC2000068D1000
0000DB000001E90000
ENDCHAR
STARTCHAR wdieresis
ENCODING 7813
SWIDTH 1266 0
DWIDTH 18 0
BBX 18 12 0 0
BITMAP
0000000F04B0000000
000000000000000000
4A000000D9000000D1
0D100004AD000005A0
086000094850000A40
02C0000D03A0001D00
00C2005800C1006800
006800A3007600C200
001D01C0002B03B000
000A4670000B285000
0004AC2000068D1000
0000DB000001E90000
ENDCHAR
STARTCHAR Ygrave
ENCODING 7922
SWIDTH 763 0
DWIDTH 11 0
BBX 10 13 0 0
BITMAP
000B600000
00016A1000
0000000000
2C1000004B
05A00001C2
0096000B40
000B307700
0002C5B000
00005E1000
00001C0000
00001C0000
00001C0000
00001C0000
ENDCHAR
STARTCHAR ygrave
ENCODING 7923
SWIDTH 911 0
DWIDTH 13 0
BBX 11 13 1 0
BITMAP
001B50000000
00017A000000
000000000000
B20000000B30
B20000000B30
B20000000B30
A40000001D30
6A000001BE30
0C92025D6B30
018DFDA30B20
000000003D00
97310138E400
28CEFEC82000
ENDCHAR
STARTCHAR endash
ENCODING 8211
SWIDTH 419 0
DWIDTH 6 0
BBX 6 1 0 4
BITMAP
BFFFF9
ENDCHAR
STARTCHAR emdash
ENCODING 8212
SWIDTH 1000 0
DWIDTH 14 0
BBX 14 1 0 4
BITMAP
FFFFFFFFFFFFFF
ENDCHAR
STARTCHAR quoteleft
ENCODING 8216
SWIDTH 163 0
DWIDTH 2 0
BBX 2 2 0 8
BITMAP
1B
68
ENDCHAR
STARTCHAR quoteright
ENCODING 8217
SWIDTH 163 0
DWIDTH 2 0
BBX 2 2 0 8
BITMAP
3A
74
ENDCHAR
STARTCHAR quotesinglbase
ENCODING 8218
SWIDTH 163 0
DWIDTH 2 0
BBX 2 2 0 -1
BITMAP
3A
74
ENDCHAR
STARTCHAR quotedblleft
ENCODING 8220
SWIDTH 303 0
DWIDTH 4 0
BBX 4 2 0 8
BITMAP
1B1A
6877
ENDCHAR
STARTCHAR quotedblright
ENCODING 8221
SWIDTH 303 0
DWIDTH 4 0
BBX 4 2 0 8
BITMAP
3A4A
7484
ENDCHAR
STARTCHAR quotedblbase
ENCODING 8222
SWIDTH 303 0
DWIDTH 4 0
BBX 4 2 0 -1
BITMAP
3A4A
7484
ENDCHAR
STARTCHAR dagger
ENCODING 8224
SWIDTH 500 0
DWIDTH 7 0
BBX 5 10 1 0
BITMAP
00D000
00D000
00D000
BFFFB0
00D000
00D000
00D000
00D000
00D000
00D000
ENDCHAR
STARTCHAR daggerdbl
ENCODING 8225
SWIDTH 500 0
DWIDTH 7 0
BBX 5 10 1 0
BITMAP
00D000
00D000
00D000
BFFFB0
00D000
00D000
BFFFB0
00D000
00D000
00D000
ENDCHAR
STARTCHAR bullet
ENCODING 8226
SWIDTH 352 0
DWIDTH 5 0
BBX 3 3 1 3
BITMAP
7E60
CFB0
7E60
ENDCHAR
STARTCHAR ellipsis
ENCODING 8230
SWIDTH 555 0
DWIDTH 8 0
BBX 8 1 0 0
BITMAP
4D0B72F1
ENDCHAR
STARTCHAR perthousand
ENCODING 8240
SWIDTH 1401 0
DWIDTH 20 0
BBX 19 10 0 0
BITMAP
04CEB200067000000000
1C315B003B0000000000
48000C01B10000000000
1C315B0A400000000000
04CEB267000000000000
000003B08EE7005DEA10
00001C17911A52C216A0
0000A40A2004957000C0
00067007911A52C216A0
003B00008EE8005DEA10
ENDCHAR
STARTCHAR guilsinglleft
ENCODING 8249
SWIDTH 257 0
DWIDTH 4 0
BBX 3 5 0 2
BITMAP
01A0
1B40
6800
1B40
01A0
ENDCHAR
STARTCHAR guilsinglright
ENCODING 8250
SWIDTH 257 0
DWIDTH 4 0
BBX 4 5 0 2
BITMAP
3900
0870
00D1
0870
3900
ENDCHAR
STARTCHAR fraction
ENCODING 8260
SWIDTH 200 0
DWIDTH 3 0
BBX 9 10 -3 0
BITMAP
0000000A40
0000007700
000003A000
00001C1000
0000A40000
0006700000
003B000000
01C1000000
0A40000000
6700000000
ENDCHAR
STARTCHAR Euro
ENCODING 8364
SWIDTH 833 0
DWIDTH 12 0
BBX 11 10 0 0
BITMAP
00006CFEC710
000AA4113770
007900000000
00C100000000
8FFFFFFF4000
03A000000000
8FFFFFF90000
00C200000000
004D72102770
00028DEEC710
ENDCHAR
STARTCHAR trademark
ENCODING 8482
SWIDTH 773 0
DWIDTH 11 0
BBX 10 4 0 6
BITMAP
9FFB960097
0360981297
0360927837
0360908637
ENDCHAR
STARTCHAR partialdiff
ENCODING 8706
SWIDTH 790 0
DWIDTH 11 0
BBX 11 10 0 0
BITMAP
000CFFEB5000
00000015D600
000000002E00
000000000C20
004ADFD92A30
07C52026DE10
1D0000001C00
1C0000008600
0B93114AA000
018DEEB50000
ENDCHAR
STARTCHAR minus
ENCODING 8722
SWIDTH 634 0
DWIDTH 9 0
BBX 7 1 1 4
BITMAP
CFFFFFB0
ENDCHAR
STARTCHAR uni2215
ENCODING 8725
SWIDTH 200 0
DWIDTH 3 0
BBX 9 10 -3 0
BITMAP
0000000A40
0000007700
000003A000
00001C1000
0000A40000
0006700000
003B000000
01C1000000
0A40000000
6700000000
ENDCHAR
STARTCHAR approxequal
ENCODING 8776
SWIDTH 634 0
DWIDTH 9 0
BBX 7 4 1 3
BITMAP
6EC72170
8138DE50
6EC72170
8138DE50
ENDCHAR
STARTCHAR notequal
ENCODING 8800
SWIDTH 634 0
DWIDTH 9 0
BBX 7 8 1 1
BITMAP
0000C000
00048000
CFFFFFB0
000C0000
003A0000
CFFFFFB0
00B10000
02B00000
ENDCHAR
STARTCHAR lessequal
ENCODING 8804
SWIDTH 634 0
DWIDTH 9 0
BBX 7 8 1 1
BITMAP
00001790
0028D820
3AD61000
E9000000
3AD61000
0028D820
00001790
CFFFFFB0
ENDCHAR
STARTCHAR greaterequal
ENCODING 8805
SWIDTH 634 0
DWIDTH 9 0
BBX 7 8 1 1
BITMAP
A6000000
29D71000
0017D920
00001AC0
0017D920
29D71000
A6000000
CFFFFFB0
ENDCHAR
STARTCHAR fi
ENCODING 64257
SWIDTH 1104 0
DWIDTH 15 0
BBX 13 10 1 0
BITMAP
019DFFFFF900D0
1DA310000000D0
4B0000000000D0
670000000000D0
670000000000D0
6FFFFFFFF700D0
670000000000D0
670000000000D0
670000000000D0
670000000000D0
ENDCHAR
STARTCHAR fl
ENCODING 64258
SWIDTH 1527 0
DWIDTH 21 0
BBX 21 10 1 0
BITMAP
019DFFFFF900D000000000
1DA310000000D000000000
4B0000000000D000000000
670000000000D000000000
670000000000D000000000
6FFFFFFFF700D000000000
670000000000D000000000
670000000000D000000000
6700000000009920000000
67000000000019EFFFFF40
ENDCHAR
STARTCHAR .notdef
ENCODING -1
SWIDTH 1000 0
DWIDTH 14 0
BBX 1 1 0 0
BITMAP
00
ENDCHAR
ENDFONT
